<?xml version="1.0" standalone="no"?><!DOCTYPE svg PUBLIC "-//W3C//DTD SVG 1.1//EN" "http://www.w3.org/Graphics/SVG/1.1/DTD/svg11.dtd"><svg t="1508481061672" class="icon" style="" viewBox="0 0 1024 1024" version="1.1" xmlns="http://www.w3.org/2000/svg" p-id="42698" xmlns:xlink="http://www.w3.org/1999/xlink" width="200" height="200"><defs><style type="text/css"></style></defs><path d="M241.68448 999.67488c-4.7104 0-9.40544-1.30048-13.53728-3.87072-7.52128-4.6848-12.0832-12.92288-12.06784-21.7856l0.36352-172.61056C93.4656 719.64672 20.48 592.13312 20.48 457.70752 20.48 218.74176 245.56544 24.32512 522.24 24.32512c276.66944 0 501.76 194.41664 501.76 433.38752 0 238.96576-225.09056 433.3824-501.76 433.3824-23.45472 0-46.96064-1.40288-70.03136-4.18304-55.79264 39.13216-193.04448 107.0848-199.18848 110.12096C249.44128 998.79424 245.5552 999.67488 241.68448 999.67488zM267.66848 790.0928l-0.30208 142.336c48.69632-24.92928 131.65056-68.6592 162.25792-92.44672 5.4528-4.23936 12.37504-6.10304 19.24096-5.14048 24.04864 3.34336 48.73728 5.0432 73.37472 5.0432 248.43776 0 450.56-171.4432 450.56-382.1824 0-210.7392-202.12224-382.18752-450.56-382.18752S71.68 246.96832 71.68 457.70752c0 120.99072 68.76672 236.14464 183.95136 308.0448C264.1664 771.08224 268.56448 780.672 267.66848 790.0928z" p-id="42699"></path><path d="M279.04 444.99968m-46.08 0a9 9 0 1 0 92.16 0 9 9 0 1 0-92.16 0Z" p-id="42700"></path><path d="M524.8 444.99968m-46.08 0a9 9 0 1 0 92.16 0 9 9 0 1 0-92.16 0Z" p-id="42701"></path><path d="M768 444.99968m-46.08 0a9 9 0 1 0 92.16 0 9 9 0 1 0-92.16 0Z" p-id="42702"></path></svg>