<?xml version="1.0" standalone="no"?>
<!DOCTYPE svg PUBLIC "-//W3C//DTD SVG 1.1//EN" "http://www.w3.org/Graphics/SVG/1.1/DTD/svg11.dtd" >
<svg xmlns="http://www.w3.org/2000/svg">
<metadata>Generated by IcoMoon</metadata>
<defs>
<font id="icomoon" horiz-adv-x="1024">
<font-face units-per-em="1024" ascent="877.7142857142858" descent="-146.28571428571428" />
<missing-glyph horiz-adv-x="1024" />
<glyph unicode="&#x20;" horiz-adv-x="256" d="" />
<glyph unicode="&#x276a;" glyph-name="apple_pay" d="M512 864c-282.77 0-512-229.23-512-512s229.23-512 512-512c282.77 0 512 229.23 512 512v0c0 282.77-229.23 512-512 512v0zM629.092 676.675v0c11.13-66.783-50.421-150.483-123.437-147.812-10.685 85.593 68.007 143.249 123.437 147.812zM629.649 49.697c-44.522 0-47.416 25.489-106.407 25.489-51.311 0-68.563-25.6-107.631-25.6-74.463 0-170.741 162.616-170.741 294.734 0 137.35 97.503 192.334 158.609 192.334 53.649 0 76.021-31.499 119.207-31.499 36.397 0 65.002 31.499 118.984 31.499v0c72.682 0 119.207-70.344 119.207-70.344s-70.79-38.4-70.79-121.99c-0.002-0.244-0.002-0.531-0.002-0.82 0-58.135 36.653-107.71 88.111-126.875l0.935-0.305s-70.344-166.734-149.37-166.734z" />
<glyph unicode="&#xe900;" glyph-name="xuanzhong" d="M962.176 542.029c-76.364 177.999-250.114 300.41-452.454 300.41-271.134 0-490.931-219.797-490.931-490.931s219.797-490.931 490.931-490.931c271.134 0 490.931 219.797 490.931 490.931 0 0.002 0 0.004 0 0.006v0c0 0.2 0 0.437 0 0.674 0 68.561-14.151 133.816-39.692 193.005l1.215-3.163zM770.176 482.778l-296.96-306.432c-5.519-5.692-13.236-9.224-21.779-9.224-7.896 0-15.088 3.018-20.484 7.964l0.023-0.020-179.674 165.12c-6.036 5.562-9.805 13.506-9.805 22.33 0 16.751 13.579 30.329 30.329 30.329 7.926 0 15.143-3.041 20.546-8.019l-0.021 0.019 157.888-145.075 276.352 285.222c5.517 5.68 13.227 9.204 21.76 9.204 16.748 0 30.324-13.577 30.324-30.324 0-8.215-3.266-15.666-8.571-21.127l0.007 0.007z" />
<glyph unicode="&#xe901;" glyph-name="sb" d="M512 864c-282.514 0-512-229.486-512-512s229.486-512 512-512 512 229.486 512 512-229.486 512-512 512zM548.571 59.429h-73.143v73.143h73.143zM475.429 205.714v438.857h73.143v-438.857z" />
<glyph unicode="&#xe902;" glyph-name="di-tu" horiz-adv-x="1103" d="M1088.563 772.329c-6.946 5.868-16.001 9.435-25.889 9.435-2.502 0-4.951-0.228-7.327-0.666l0.247 0.038-292.529-52.056-74.712 24.915c-4.114 1.546-8.869 2.441-13.833 2.441-22.323 0-40.419-18.096-40.419-40.419 0-17.359 10.943-32.162 26.307-37.887l0.279-0.091 2.194-0.72 84.436-28.189c1.657-0.566 3.673-1.077 5.741-1.437l0.25-0.036v-327.594l-166.973 51.401c-2.525 0.865-5.434 1.364-8.46 1.364-14.863 0-26.912-12.049-26.912-26.912 0-11.469 7.174-21.262 17.279-25.137l0.184-0.062 2.095-0.655 182.753-56.28v-337.743l-349.726 98.219v152.207c0 14.863-12.049 26.912-26.912 26.912s-26.912-12.049-26.912-26.912v-152.567l-269.022-42.234v759.627c-0.64 21.795-18.461 39.219-40.352 39.219s-39.711-17.424-40.35-39.16l-0.001-0.059v-807.099c0.002-22.293 18.075-40.364 40.368-40.364 2.208 0 4.374 0.177 6.485 0.518l-0.232-0.031 334.305 52.384 374.935-105.193c3.268-0.956 7.023-1.506 10.907-1.506 2.556 0 5.057 0.238 7.481 0.694l-0.25-0.039 295.902 53.857c18.964 3.534 33.129 19.953 33.133 39.68v0 807.099c0 0.043 0 0.093 0 0.144 0 12.38-5.587 23.456-14.377 30.843l-0.062 0.050zM1022.298 353.26l-215.231-37.454v339.020l215.231 38.273zM807.099-71.046v332.046l215.231 37.454v-330.671zM179.741 531.234c13.096-26.192 134.429-197.028 171.294-248.822 7.384-10.27 19.285-16.889 32.734-16.926h0.006c13.487 0.085 25.393 6.777 32.656 16.998l0.084 0.125c36.734 52.187 157.543 224.3 169.919 248.167 15.92 30.361 25.261 66.329 25.261 104.479 0 126.3-102.387 228.687-228.687 228.687s-228.687-102.387-228.687-228.687c0-37.969 9.253-73.776 25.627-105.29l-0.6 1.27zM383.415 781.561c0.391 0.004 0.852 0.006 1.314 0.006 80.988 0 146.641-65.653 146.641-146.641 0-24.397-5.958-47.402-16.498-67.64l0.385 0.812c-7.039-13.096-68.099-101.493-131.548-192.248-58.244 82.406-124.247 177.122-131.908 191.756-10.117 19.156-16.145 41.834-16.369 65.9l-0.001 0.071c0.112 81.666 66.285 147.839 147.94 147.951h0.011zM316.167 633.676c0.003-37.137 30.11-67.241 67.247-67.241 37.14 0 67.247 30.108 67.247 67.247s-30.108 67.247-67.247 67.247c-12.38 0-23.978-3.345-33.941-9.181l0.317 0.172c-20.242-11.844-33.624-33.478-33.624-58.238 0-0.002 0-0.004 0-0.006v0z" />
<glyph unicode="&#xe903;" glyph-name="bianji" d="M373.244 87.22l641.037 724.556-47.623 51.219-641.523-723.94zM963.062 484.114h60.938v-503.318c0.003-0.363 0.005-0.793 0.005-1.223 0-38.164-14.793-72.873-38.957-98.706l0.076 0.082c-23.387-25.218-56.699-40.95-93.686-40.95-0.002 0-0.004 0-0.006 0h-758.831c-37.004 0.002-70.331 15.746-93.649 40.9l-0.075 0.082c-24.089 25.747-38.881 60.451-38.881 98.611 0 0.423 0.002 0.846 0.005 1.268v-0.065 742.406c-0.003 0.367-0.005 0.801-0.005 1.236 0 38.16 14.793 72.865 38.957 98.693l-0.075-0.081c23.387 25.218 56.699 40.95 93.686 40.95 0.013 0 0.027 0 0.040 0h553.984v-65.539h-553.986c-39.427 0-71.694-33.272-71.694-75.258v-742.406c0-42.116 32.397-75.258 71.694-75.258h758.799c39.427 0 71.662 33.272 71.662 75.258v503.318z" />
<glyph unicode="&#xe904;" horiz-adv-x="724" d="M512.061 37.405c-10.825 0-21.893 2.676-31.745 7.541l-103.993 52.787c-5.473 2.797-11.312 4.135-17.271 4.135s-11.798-1.338-17.271-4.135l-103.872-52.666c-9.001-4.5-20.555-7.298-30.407-7.298-13.744 0-28.096 5.108-40.624 14.474-20.677 16.298-31.745 44.152-27.488 69.451l17.028 118.102c1.46 12.649-3.041 26.515-11.068 34.543l-79.667 85.506c-18.123 19.704-24.204 47.436-15.933 72.37 8.879 26.515 29.434 44.881 55.098 49.26l113.845 19.947c11.068 1.338 22.137 9.73 27.61 20.677l52.666 105.331c13.014 24.448 36.246 39.043 62.274 39.043 26.88 0 49.747-15.569 59.477-40.624l54.004-105.21c5.352-10.703 14.96-17.88 27.61-20.677l113.845-19.947c25.664-4.257 46.219-22.623 54.977-49.26 8.757-24.934 2.433-54.004-15.933-72.37l-79.667-85.384c-8.392-9.73-12.406-22.38-11.068-34.664l15.69-118.102c4.135-26.272-6.446-52.909-27.488-69.451-12.041-8.757-26.029-13.379-40.624-13.379zM359.051 104.301c6.325 0 12.528-1.46 18.366-4.379l103.872-52.666c9.609-4.744 20.191-7.298 30.651-7.298 14.109 0 27.61 4.5 39.165 12.893 20.434 16.055 30.529 41.719 26.515 67.14l-15.69 118.102c-1.46 12.893 2.797 26.272 11.676 36.489l79.789 85.384c17.758 17.758 23.961 45.854 15.447 69.937-8.514 25.664-28.461 43.422-53.152 47.557l-113.845 19.947c-13.501 3.041-23.596 10.582-29.313 22.015l-54.125 105.575c-9.365 24.083-31.259 39.043-57.166 39.043-25.177 0-47.557-14.109-60.085-37.827l-52.666-105.331c-5.838-11.676-17.636-20.555-29.434-22.015l-113.845-19.947c-24.691-4.135-44.638-21.893-53.152-47.557-8.028-24.204-2.189-50.963 15.447-69.937l79.667-85.384c8.636-8.636 13.258-22.988 11.676-36.489l-17.028-118.224c-4.135-24.448 6.568-51.449 26.637-67.14 12.041-9.001 25.907-13.987 39.043-13.987 9.487 0 20.677 2.676 29.313 6.933l103.872 52.666c5.838 2.919 12.041 4.5 18.366 4.5z" />
<glyph unicode="&#xe905;" horiz-adv-x="724" d="M512.061 30.107c-12.041 0-24.083 2.919-35.029 8.392l-103.993 52.666c-4.379 2.189-9.122 3.406-13.987 3.406s-9.487-1.095-13.987-3.406l-103.872-52.666c-9.974-4.987-22.866-8.028-33.691-8.028-15.325 0-31.259 5.717-45.003 15.933l-0.122 0.122c-22.745 17.88-34.786 48.53-30.164 76.383l17.028 117.859c1.095 10.339-2.554 22.015-9.001 28.461l-0.122 0.122-79.789 85.384c-19.947 21.65-26.637 52.179-17.515 79.667 9.73 29.191 32.475 49.382 60.815 54.125l114.089 19.947c8.514 1.095 17.636 7.906 22.015 16.663l52.787 105.453c14.231 26.88 39.895 42.935 68.721 42.935 29.921 0 55.22-17.15 66.167-44.881l53.882-104.966c4.379-8.757 12.163-14.474 22.623-16.907l113.602-19.826c28.218-4.744 50.963-24.934 60.693-54.004 9.73-27.488 2.554-59.599-17.636-79.789l-79.424-85.141c-7.055-8.271-10.339-18.731-9.244-28.826l15.69-117.981c4.5-28.826-7.055-58.017-30.164-76.262l-0.243-0.122c-13.379-9.609-28.948-14.717-45.125-14.717zM359.051 111.599c7.419 0 14.717-1.703 21.65-5.108l103.993-52.666c8.514-4.257 18.001-6.568 27.367-6.568 12.528 0 24.569 4.014 34.786 11.433 18.244 14.352 27.367 37.462 23.718 60.207v0.122l-15.69 118.346c-1.703 14.96 3.162 30.286 13.379 42.084l0.243 0.243 79.911 85.627c15.812 15.812 21.285 40.868 13.623 62.396v0.122c-7.663 23.11-25.421 39.043-47.436 42.692l-114.21 19.947c-15.69 3.527-27.61 12.406-34.3 25.907l-54.368 105.575-0.122 0.365c-8.271 21.285-27.61 34.421-50.476 34.421-22.38 0-42.449-12.649-53.639-33.813l-52.666-105.21c-6.811-13.744-20.799-24.083-34.786-25.907l-113.602-19.947c-22.015-3.649-39.773-19.582-47.436-42.692-7.176-21.65-1.946-45.611 13.866-62.639l79.546-85.262c10.095-10.095 15.447-26.759 13.744-42.449v-0.243l-17.15-118.346c-3.649-21.893 5.96-46.098 23.839-60.207 10.703-8.028 23.11-12.406 34.664-12.406 8.271 0 18.488 2.433 26.029 6.203l103.872 52.666c6.933 3.284 14.231 5.108 21.65 5.108z" />
<glyph unicode="&#xe906;" glyph-name="about-more, 3e3a39" d="M512-160c-282.774 0.004-512.007 229.239-512.007 512.015 0 141.383 57.305 269.382 149.954 362.038v0c92.654 92.651 220.654 149.957 362.038 149.957 282.775 0 512.009-229.234 512.009-512.009 0-141.391-57.311-269.396-149.971-362.052v0c-92.142-92.626-219.694-149.949-360.635-149.949-0.488 0-0.977 0.001-1.465 0.002h0.076zM512 816.336c-256.051 0-464.38-208.3-464.38-464.336s208.329-464.409 464.38-464.409 464.336 208.329 464.336 464.409-208.3 464.336-464.336 464.336zM387.395 73.366c-0.004 0-0.008 0-0.013 0-13.17 0-23.846 10.676-23.846 23.846 0 6.613 2.692 12.598 7.040 16.918l237.927 237.869-237.926 237.955c-4.321 4.312-6.995 10.274-6.995 16.861 0 13.155 10.664 23.819 23.819 23.819 6.568 0 12.516-2.659 16.825-6.959v0l249.167-249.196c4.038-4.202 6.525-9.921 6.525-16.221 0-1.676-0.176-3.312-0.511-4.888l0.027 0.153-0.276-1.452 0.276-1.452c0.314-1.44 0.495-3.094 0.495-4.789 0-6.322-2.503-12.059-6.572-16.276l-249.131-249.16c-4.275-4.34-10.216-7.029-16.785-7.029-0.016 0-0.033 0-0.049 0h0.003z" />
<glyph unicode="&#xe907;" glyph-name="add-add-red, ff5353-ç°, cccccc" d="M511.386 856.576c-278.868 0-504.934-226.067-504.934-504.934s226.067-504.934 504.934-504.934c278.868 0 504.934 226.067 504.934 504.934v0c-0.32 278.739-226.196 504.614-504.904 504.934h-0.031zM511.386-100.045c-249.46 0-451.686 202.227-451.686 451.686s202.227 451.686 451.686 451.686c249.46 0 451.686-202.227 451.686-451.686v0c-0.291-249.342-202.344-451.395-451.658-451.686h-0.028zM701.85 387.84h-154.522v154.266c0 14.694-20.787 26.624-35.482 26.624s-35.686-11.93-35.686-26.624v-154.266h-155.238c-14.694 0-26.624-20.787-26.624-35.482s11.93-35.482 26.624-35.482h155.238v-155.802c0-14.694 20.787-26.624 35.482-26.624s35.482 11.93 35.482 26.624v155.904h154.522c14.694 0 26.624 20.787 26.624 35.482s-11.469 35.379-26.419 35.379z" />
<glyph unicode="&#xe908;" horiz-adv-x="1023" d="M683.509 153.665c-0.018 0-0.040 0-0.062 0-7.226 0-13.768 2.926-18.508 7.657v0l-344.976 344.876c-4.624 4.743-7.476 11.233-7.476 18.389 0 14.555 11.799 26.354 26.354 26.354 7.156 0 13.646-2.852 18.395-7.482l-0.006 0.005 344.919-344.876c4.778-4.762 7.734-11.349 7.734-18.626 0-14.523-11.774-26.297-26.297-26.297-0.002 0-0.004 0-0.007 0v0z" />
<glyph unicode="&#xe909;" glyph-name="Arrow, c4c4c4" d="M647.68 372.992c12.288 12.288 32.768 12.288 45.056 0v0c12.288-12.288 12.288-32.768 0-45.056l-316.928-316.928c-12.288-12.288-32.768-12.288-45.056 0v0c-12.288 12.288-12.288 32.768 0 45.056l316.928 316.928zM330.752 647.936c-12.288 12.288-12.288 32.768 0 45.056v0c12.288 12.288 32.768 12.288 45.056 0l316.928-316.928c12.288-12.288 12.288-32.768 0-45.056v0c-12.288-12.288-32.768-12.288-45.056 0 0 0-316.928 316.928-316.928 316.928z" />
<glyph unicode="&#xe90a;" glyph-name="back, 3e3a397" d="M732.883-87.714c12.248 12.28 12.248 32.13 0 44.376l-398.437 398.437 396.504 396.504c12.181 12.214 12.181 31.999 0 44.214-12.214 12.182-31.999 12.182-44.215 0l-418.589-418.622c-6.135-6.135-9.148-14.193-9.104-22.246-0.046-8.087 2.984-16.182 9.153-22.351l420.313-420.312c12.245-12.247 32.095-12.247 44.375 0.001z" />
<glyph unicode="&#xe90b;" glyph-name="Back" horiz-adv-x="559" d="M496.589 864l-496.589-512.044 62.008-63.959h0.088l434.493-447.998 62.008 63.959-434.493 447.998 434.493 447.985-62.008 64.059z" />
<glyph unicode="&#xe90c;" glyph-name="tel" horiz-adv-x="767" d="M99.216 805.807v0c23.463 24.047 52.993 42.070 86.119 51.598l1.384 0.341c34.74 9.467 71.441 7.249 108.427-0.54 5.458-1.564 6.055-1.734 11.599-3.383 62.543-18.308 101.49-106.92 88.669-214.722-6.993-58.762-28.429-109.934-58.989-140.438-22.743-22.743-49.324-32.721-75.649-28.628-5.075-0.887-9.547-3.006-13.241-6.038l0.050 0.040c-0.938-0.938-2.843-2.843-2.502-9.097v-1.194c11.024-82.297 32.055-156.854 62.112-226.609l-2.127 5.548c6.169-8.813 10.917-11.57 12.793-11.769 1.382 0.127 2.639 0.565 3.732 1.243l-0.036-0.021c17.057 16.233 39.345 23.596 64.903 21.663 48.13-3.639 103.054-39.8 146.976-96.43 67.347-86.992 83.211-187.629 36.957-233.797l-1.336-1.308c-2.137-2.032-4.436-3.953-6.855-5.72l-0.196-0.136c-27.149-29.68-59.217-49.921-94.923-59.7-165.256-45.088-356.353 141.688-434.958 424.895-60.695 218.645-33.716 433.196 67.12 534.146zM298.217 536.957c21.748 21.748 37.981 62.287 43.496 108.512 9.58 80.567-17.057 147.118-46.424 156.016-4.463 1.365-7.391 2.104-9.723 2.843-27.661 7.391-58.734 8.187-84.433 1.194-25.028-7.24-46.43-20.383-63.39-37.86l-0.034-0.035c-86.082-86.082-108.029-284.002-53.19-481.297 68.229-245.709 236.953-422.961 368.492-387.085 26.382 7.221 50.404 22.743 70.759 45.742 1.495 1.657 3.154 3.118 4.966 4.373l0.094 0.062c1.132 0.729 2.116 1.487 3.032 2.32l-0.019-0.017c22.743 22.743 9.808 96.913-41.079 162.64-33.631 43.439-76.075 73.118-108.029 75.535-15.039 1.137-21.066-4.634-23.056-6.51-11.012-10.334-25.871-16.683-42.212-16.683-1.843 0-3.667 0.081-5.469 0.239l0.234-0.017c-20.582 2.161-38.663 14.868-53.702 37.782-0.818 1.22-1.588 2.62-2.234 4.088l-0.069 0.176c-13.502 30.453-26.973 68.014-37.957 106.623l-1.559 6.409c-10.46 35.725-19.482 79.052-25.273 123.395l-0.484 4.534c-0.096 0.853-0.151 1.841-0.151 2.843s0.055 1.99 0.162 2.963l-0.011-0.12c-0.024 0.656-0.038 1.427-0.038 2.201 0 17.378 6.995 33.122 18.323 44.57l-0.005-0.006c19.474 19.474 47.163 21.975 50.262 22.174 0.581 0.045 1.257 0.070 1.94 0.070 2.155 0 4.251-0.253 6.26-0.732l-0.183 0.037c11.741-2.843 23.084 5.686 30.561 13.077zM487.694 468.273c4.95 4.931 11.779 7.98 19.32 7.98 5.82 0 11.215-1.816 15.651-4.912l-0.089 0.059c24.965-17.386 41.099-45.948 41.099-78.277 0-20.192-6.293-38.914-17.025-54.311l0.205 0.31c-4.951-7.584-13.398-12.527-22.999-12.527-15.12 0-27.377 12.257-27.377 27.377 0 6.117 2.006 11.766 5.397 16.324l-0.052-0.073c4.473 6.413 7.146 14.369 7.146 22.95 0 13.729-6.844 25.86-17.306 33.166l-0.131 0.087c-7.183 5-11.825 13.216-11.825 22.516 0 5.803 1.808 11.184 4.89 15.611l-0.059-0.089c0.994 1.43 2.041 2.684 3.186 3.84l-0.002-0.002zM554.359 532.295c4.946 4.929 11.769 7.977 19.305 7.977 5.815 0 11.206-1.815 15.637-4.909l-0.089 0.059c43.829-30.587 72.145-80.774 72.145-137.576 0-35.462-11.037-68.346-29.863-95.405l0.361 0.548c-5.002-7.18-13.217-11.819-22.515-11.819-15.108 0-27.355 12.247-27.355 27.355 0 5.809 1.811 11.196 4.899 15.625l-0.059-0.089c12.425 17.834 19.852 39.957 19.852 63.815 0 38.21-19.050 71.97-48.171 92.301l-0.365 0.241c-7.206 4.997-11.865 13.226-11.865 22.543 0 5.828 1.823 11.23 4.93 15.668l-0.058-0.088c0.994 1.43 2.041 2.684 3.186 3.84l-0.002-0.002zM608.373 628.298c4.952 4.941 11.788 7.997 19.337 7.997 5.812 0 11.202-1.811 15.634-4.9l-0.089 0.059c75.283-52.471 123.928-138.629 123.928-236.149 0-60.946-18.999-117.454-51.399-163.924l0.617 0.935c-4.952-7.583-13.398-12.525-22.999-12.525-15.121 0-27.379 12.258-27.379 27.379 0 5.52 1.634 10.659 4.444 14.959l-0.064-0.105q0.455 0.711 0.967 1.393c25.721 36.852 41.098 82.584 41.098 131.907 0 78.931-39.377 148.664-99.558 190.628l-0.756 0.499c-7.178 4.994-11.817 13.203-11.817 22.495 0 7.561 3.072 14.405 8.035 19.351l0.001 0.001z" />
<glyph unicode="&#xe90d;" glyph-name="chat, ffffff4" d="M241.684-135.675c-4.71 0-9.405 1.3-13.537 3.871-7.521 4.685-12.083 12.923-12.068 21.786l0.364 172.611c-122.977 81.761-195.963 209.275-195.963 343.7 0 238.966 225.085 433.382 501.76 433.382 276.669 0 501.76-194.417 501.76-433.388 0-238.966-225.091-433.382-501.76-433.382-23.455 0-46.961 1.403-70.031 4.183-55.793-39.132-193.044-107.085-199.188-110.121-3.579-1.761-7.465-2.642-11.336-2.642zM267.668 73.907l-0.302-142.336c48.696 24.929 131.651 68.659 162.258 92.447 5.453 4.239 12.375 6.103 19.241 5.14 24.049-3.343 48.737-5.043 73.375-5.043 248.438 0 450.56 171.443 450.56 382.182s-202.122 382.188-450.56 382.188-450.56-171.453-450.56-382.193c0-120.991 68.767-236.145 183.951-308.045 8.535-5.33 12.933-14.92 12.037-24.34zM232.96 419c0-25.449 20.631-46.080 46.080-46.080s46.080 20.631 46.080 46.080v0c0 25.449-20.631 46.080-46.080 46.080s-46.080-20.631-46.080-46.080v0zM478.72 419c0-25.449 20.631-46.080 46.080-46.080s46.080 20.631 46.080 46.080v0c0 25.449-20.631 46.080-46.080 46.080s-46.080-20.631-46.080-46.080v0zM721.92 419c0-25.449 20.631-46.080 46.080-46.080s46.080 20.631 46.080 46.080v0c0 25.449-20.631 46.080-46.080 46.080s-46.080-20.631-46.080-46.080v0z" />
<glyph unicode="&#xe90e;" glyph-name="class, FF36492" d="M445.074 864h134.217v-1024h-134.217v1024zM1024 418.926v-134.217h-1024v134.217h1024z" />
<glyph unicode="&#xe90f;" glyph-name="daifahuo, 595757" d="M399.008 441.984h-318.016q-4.992 0-9.504 2.496t-7.008 6.496-2.496 10.016q0 7.008 5.504 12.512t13.504 5.504h318.016q3.008 0 6.496-0.992t6.496-4 4.512-6.496 1.504-6.496q-4-16.992-19.008-19.008zM943.008 441.984h-318.016q-7.008 0-12.992 5.504t-6.016 12.992 6.016 12.992 12.992 5.504h318.016q8 0 13.504-5.504t5.504-12.512q-4-16.992-19.008-19.008zM399.008 217.984q-11.008 0-16.992 10.016-4 7.008-2.016 14.496t8.992 11.488l112.992 66.016q4.992 2.016 10.016 2.016t9.504-2.496 6.496-6.496q4-7.008 2.016-14.496t-8-11.488l-114.016-66.016q-2.016-0.992-4.512-2.016t-4.512-0.992zM624.992 217.984q-0.992 0-3.008 0.512t-3.488 0.992-2.496 1.504l-114.016 66.016q-6.016 4-8 11.488t2.016 14.496q2.016 4 6.496 6.496t9.504 2.496 10.016-2.016l112.992-66.016q3.008-2.016 4.992-4.512t3.008-4.992 0.992-5.504-0.512-6.016-1.504-4.992q-3.008-4.992-7.488-7.488t-9.504-2.496zM399.008 217.984q-8 0-13.504 5.504t-5.504 13.504v498.016q0 3.008 0.512 5.504t2.016 4.512 3.008 3.488 3.488 3.008 4.512 2.016 5.504 0.512q4.992 0 8.992-2.496t7.008-7.008 3.008-9.504v-498.016q0-4-1.504-7.488t-4.512-6.016-6.496-4-6.496-1.504zM624.992 217.984q-3.008 0-6.496 1.504t-6.496 4-4.512 6.016-1.504 7.488v498.016q0 8 6.016 13.504t12.992 5.504q3.008 0 6.016-0.992t5.504-2.496 4-4 2.496-5.504 0.992-6.016v-498.016q0-4.992-2.496-9.504t-7.008-7.008-9.504-2.496zM816-50.016h-608q-60 0-103.008 42.496t-43.008 101.504v516q0 39.008 19.488 72t53.504 52.512 72.992 19.488h608q60 0 103.008-42.496t43.008-101.504v-516q0-59.008-43.008-101.504t-103.008-42.496zM208 716q-44 0-76-31.008t-32-75.008v-516q0-44 32-75.008t76-31.008h608q44 0 76 31.008t32 75.008v516q0 16.992-5.504 32.992t-15.488 29.504-23.488 23.008-30.016 15.008-33.504 5.504h-608z" />
<glyph unicode="&#xe910;" glyph-name="daifukuan, 5957572" d="M925.393 486.637v132.741c0 60.681-49.304 109.985-109.985 109.985h-623.881c-60.681 0-109.985-49.304-109.985-109.985v-525.274c0-60.681 49.304-109.985 109.985-109.985h623.881c60.681 0 109.985 49.304 109.985 109.985v146.015c37.926 5.689 64.474 37.926 64.474 77.748v91.022c0 37.926-28.444 70.163-64.474 77.748zM815.407 22.044h-623.881c-39.822 0-72.059 32.237-72.059 72.059v525.274c0 39.822 32.237 72.059 72.059 72.059h623.881c39.822 0 72.059-32.237 72.059-72.059v-130.844h-238.933c-43.615 0-79.644-36.030-79.644-79.644v-89.126c0-43.615 36.030-79.644 79.644-79.644h238.933v-146.015c0-39.822-32.237-72.059-72.059-72.059zM951.941 319.763c0-22.756-18.963-41.719-41.719-41.719h-261.689c-22.756 0-41.719 18.963-41.719 41.719v89.126c0 22.756 18.963 41.719 41.719 41.719h261.689c22.756 0 41.719-18.963 41.719-41.719v-89.126zM659.911 363.378c0-19.899 16.131-36.030 36.030-36.030s36.030 16.131 36.030 36.030v0c0 19.899-16.131 36.030-36.030 36.030s-36.030-16.131-36.030-36.030v0z" />
<glyph unicode="&#xe911;" glyph-name="daipingjia, 5957573" d="M836.424 407.747c-13.312 0-23.368-10.568-23.368-24.556v-344.228c0-35.799-27.853-64.942-62.095-64.942h-540.242c-17.203 0-36.741 7.455-51.036 19.517-15.79 12.759-24.822 29.45-24.822 45.814v542.269c0 16.773 9.155 34.898 25.149 49.746 15.36 14.582 34.488 23.286 51.139 23.286h291.185c13.988 0 24.556 10.035 24.556 23.347 0 13.087-10.568 22.958-24.556 22.958h-291.205c-68.506 0-122.163-52.429-122.163-119.337v-542.269c0-32.236 12.698-61.071 35.717-81.162 21.75-19.64 52.449-30.454 86.446-30.454h540.631c32.829 0 60.416 10.486 79.831 30.31 18.944 19.784 28.959 47.903 28.959 81.326l-0.799 343.798c0 14.008-10.035 24.576-23.327 24.576zM913.347 666.225l-88.248 88.637c-13.169 13.619-32.645 21.402-53.473 21.402-19.763 0-39.199-7.598-53.74-21.258l-71.291-84.644-384.041-367.78-25.211-219.136 10.65-9.359 213.074 28.877 366.449 384.369 85.873 69.632c29.082 29.532 29.041 80.609-0.041 109.261zM325.693 285.153l345.498 344.31 116.9-116.9-343.716-346.481-118.682 119.071zM295.158 131.574l6.656 109.138 100.721-100.741-107.377-8.397zM887.276 613.202c0-7.455-2.826-14.356-7.926-19.476l-52.265-52.244-126.833 127.201 51.876 52.244c10.24 10.24 28.692 10.24 38.932 0l88.289-88.289c5.12-5.059 7.926-11.981 7.926-19.436z" />
<glyph unicode="&#xe912;" glyph-name="daishiyong, 5957574" d="M892.16-24.269h-740.864c-45.428 0.058-82.242 36.854-82.33 82.27v185.25h20.48c56.837 0 102.912 46.075 102.912 102.912s-46.075 102.912-102.912 102.912v0h-20.48v185.139c0.058 45.456 36.877 82.293 82.321 82.381h740.923c45.412-0.116 82.191-36.913 82.278-82.321v-185.25h-20.48c-56.837 0-102.912-46.075-102.912-102.912s46.075-102.912 102.912-102.912v0h20.48v-185.19c-0.145-45.39-36.931-82.14-82.321-82.227h-0.008zM110.131 203.52v-145.51c0.144-22.563 18.397-40.816 40.946-40.96h741.134c22.563 0.144 40.816 18.397 40.96 40.946v145.524c-70.202 10.443-123.446 70.299-123.446 142.592s53.244 132.149 122.656 142.495l0.789 0.097v145.51c-0.144 22.563-18.397 40.816-40.946 40.96h-740.929c-22.563-0.144-40.816-18.397-40.96-40.946v-145.524c70.202-10.443 123.446-70.299 123.446-142.592s-53.244-132.149-122.656-142.495l-0.789-0.097zM614.4 171.213c-8.771 0.026-17.020 2.24-24.236 6.125l0.274-0.135-64.051 33.69c-1.374 0.731-3.005 1.161-4.736 1.161s-3.362-0.43-4.792-1.188l0.056 0.027-64.102-33.741c-6.901-3.62-15.077-5.744-23.75-5.744-15.795 0-29.944 7.046-39.475 18.167l-0.059 0.070c-7.497 8.848-12.055 20.393-12.055 33.002 0 3.065 0.269 6.067 0.785 8.983l-0.045-0.309 12.237 71.373c0.089 0.513 0.14 1.105 0.14 1.708 0 2.89-1.168 5.508-3.059 7.406v0l-51.763 50.432c-9.685 9.329-15.701 22.41-15.701 36.895 0 25.779 19.051 47.108 43.843 50.675l0.275 0.032 71.68 10.24c3.399 0.551 6.209 2.668 7.704 5.573l0.028 0.059 32.051 65.178c8.485 17.233 25.922 28.882 46.080 28.882s37.595-11.649 45.946-28.582l0.134-0.3 32.051-64.973c1.488-2.992 4.315-5.125 7.675-5.625l0.056-0.007 71.68-10.24c25.155-3.516 44.304-24.888 44.304-50.734 0-14.577-6.092-27.731-15.868-37.055l-0.020-0.019-51.866-50.534c-1.926-1.864-3.121-4.473-3.121-7.36 0-0.619 0.055-1.226 0.16-1.815l-0.009 0.062 12.237-71.322c0.507-2.697 0.798-5.8 0.798-8.971 0-12.515-4.522-23.974-12.021-32.832l0.061 0.074c-9.52-11.25-23.64-18.353-39.419-18.381h-0.005zM521.677 253.133c8.743-0.016 16.973-2.193 24.191-6.024l-0.281 0.136 64.205-33.485c1.377-0.735 3.011-1.166 4.745-1.166 3.173 0 6.009 1.443 7.887 3.709l0.014 0.017c1.459 1.678 2.348 3.885 2.348 6.3 0 0.688-0.072 1.359-0.209 2.006l0.011-0.063-12.339 71.117c-0.471 2.609-0.741 5.612-0.741 8.679 0 14.431 5.97 27.467 15.575 36.774l0.013 0.013 51.814 50.534c1.912 1.798 3.103 4.344 3.103 7.168 0 1.098-0.18 2.155-0.512 3.141l0.020-0.069c-1.153 3.708-4.321 6.448-8.193 6.958l-0.050 0.005-71.68 10.24c-17.051 2.705-31.1 13.505-38.267 28.265l-0.133 0.304-32.102 64.973c-1.707 3.418-5.179 5.724-9.19 5.724s-7.483-2.306-9.164-5.665l-0.027-0.059-32.205-64.973c-7.5-14.889-21.612-25.498-38.372-28.022l-0.284-0.035-71.68-10.24c-4.944-0.784-8.679-5.016-8.679-10.12 0-2.851 1.165-5.43 3.045-7.287l0.001-0.001 51.866-50.534c9.542-9.309 15.46-22.294 15.46-36.662 0-3.22-0.297-6.371-0.866-9.427l0.049 0.316-12.186-71.373c-0.126-0.584-0.198-1.255-0.198-1.943 0-2.415 0.889-4.622 2.358-6.312l-0.010 0.012c1.892-2.294 4.735-3.745 7.916-3.745 1.749 0 3.396 0.439 4.836 1.212l-0.055-0.027 64.102 33.792c6.934 3.709 15.168 5.887 23.91 5.888v0zM274.79 593.101c-11.311 0-20.48 9.169-20.48 20.48v0 0 61.798c0 11.311 9.169 20.48 20.48 20.48s20.48-9.169 20.48-20.48v0-61.696c0-11.311-9.169-20.48-20.48-20.48v0zM274.79-3.686c-11.311 0-20.48 9.169-20.48 20.48v0s0 0 0 0v61.798c0 11.311 9.169 20.48 20.48 20.48s20.48-9.169 20.48-20.48v0-61.747c0-11.311-9.169-20.48-20.48-20.48v0z" />
<glyph unicode="&#xe913;" glyph-name="daishouhuo, 5957575" d="M890.656 522.254l-51.898 170.182c-6.815 22.494-28.594 39.46-50.802 39.46h-552.151c-22.113 0-43.939-16.966-50.754-39.46l-51.612-170.182c-2.089-9.312-3.302-20.017-3.336-31v-465.154c0-28.952 23.47-52.422 52.422-52.422v0h658.95c28.952 0 52.422 23.47 52.422 52.422v0 465.082c0 0.004 0 0.009 0 0.014 0 10.999-1.18 21.723-3.421 32.051l0.181-0.992zM221.794 681.332c2.099 6.31 7.413 11.005 13.949 12.184l0.11 0.016h552.246c6.744-1.112 12.161-5.83 14.26-12.073l0.037-0.127 50.659-167.275h-682.111zM855.629 26.052c0-7.896-6.401-14.297-14.297-14.297v0h-658.854c-7.896 0-14.297 6.401-14.297 14.297v0 449.641h687.401zM239.523 264.002h267.164c10.594 0 19.182 8.588 19.182 19.182s-8.588 19.182-19.182 19.182v0h-267.164c-10.594 0-19.182-8.588-19.182-19.182s8.588-19.182 19.182-19.182v0zM424.145 200.761h-182.001c-10.594 0-19.182-8.588-19.182-19.182s8.588-19.182 19.182-19.182v0h182.001c10.594 0 19.182 8.588 19.182 19.182s-8.588 19.182-19.182 19.182v0zM637.79 168.212c3.467-3.563 8.309-5.773 13.667-5.773 0.507 0 1.009 0.020 1.506 0.059l-0.066-0.004h1.382c0.019 0 0.041 0 0.063 0 5.26 0 10.023 2.131 13.472 5.576v0l146.878 146.878c3.511 3.46 5.687 8.267 5.687 13.582s-2.175 10.123-5.685 13.58l-0.002 0.002c-3.518 3.363-8.296 5.433-13.558 5.433s-10.041-2.070-13.566-5.44l-134.671-134.719-59.047 59.047c-3.518 3.363-8.296 5.433-13.558 5.433s-10.041-2.070-13.566-5.44l0.007 0.007c-3.497-3.457-5.663-8.255-5.663-13.558s2.166-10.101 5.661-13.557l0.002-0.002z" />
<glyph unicode="&#xe914;" glyph-name="dingdan, 3e3a392" horiz-adv-x="894" d="M122.946-160c-67.831 0.176-122.771 55.116-122.946 122.929v648.526c0.176 67.831 55.116 122.771 122.929 122.946h103.985v64.413h84.164l1.65 2.475c28.055 38.782 80.039 62.711 134.498 62.711 55.284 0 105.618-23.104 134.498-62.711l1.65-2.475h84.164v-64.361h103.968c67.831-0.176 122.771-55.116 122.946-122.929v-648.526c-0.176-67.831-55.116-122.771-122.929-122.946h-0.017zM122.946 682.469c-39.635-0.029-71.758-32.152-71.787-71.784v-648.512c0-39.657 32.134-71.809 71.784-71.839h648.512c39.635 0.029 71.758 32.152 71.787 71.784v649.389c-0.029 39.635-32.152 71.758-71.784 71.787h-103.919v-129.547h-440.625v128.722zM279.774 604.854h337.431v142.801h-72.612c-4.126 36.306-46.208 65.186-96.541 65.186s-91.539-28.88-96.541-65.186h-71.736zM220.313 34.733c-14.127 0-25.579 11.452-25.579 25.579s11.452 25.579 25.579 25.579h453.828c14.127 0 25.579-11.452 25.579-25.579s-11.452-25.579-25.579-25.579v0zM220.313 196.461c-14.127 0-25.579 11.452-25.579 25.579s11.452 25.579 25.579 25.579h453.828c14.127 0 25.579-11.452 25.579-25.579s-11.452-25.579-25.579-25.579v0zM220.313 359.014c-14.127 0-25.579 11.452-25.579 25.579s11.452 25.579 25.579 25.579h453.828c14.098-0.073 25.507-11.482 25.579-25.572v-0.007c0-14.853-10.727-25.579-25.579-25.579z" />
<glyph unicode="&#xe915;" glyph-name="dizhi, 666464" horiz-adv-x="1021" d="M874.446 492.925c-0.711-56.13-18.473-107.283-42.618-157.013-36.235-73.892-84.543-140.673-136.406-203.898-50.273-60.399-101.6-114.875-156.056-166.061l-0.957-0.891c-19.184-18.473-36.946-18.473-57.553-0.711-103.727 93.077-196.804 194.67-267.123 315.448-11.361 19.895-22.029 39.791-31.222 60.398-8.517 19.895-6.401 36.235 10.65 42.636 18.473 8.517 26.99-2.134 36.946-18.473 46.833-95.921 84.543-152.763 152.052-226.638 26.296-28.412 81.715-77.448 110.127-103.727 12.784-12.801 29.835-6.401 34.813-1.422 93.788 93.077 195.381 203.204 259.317 321.137 18.473 34.813 31.968 62.444 36.946 131.428-0.069 154.151-113.753 326.827-299.195 326.827-129.312 4.267-269.968-93.788-310.487-216.699-9.939-30.546-13.512-76.72-14.206-109.416 0-23.451-9.245-32.679-30.546-32.679s-24.856 17.085-24.856 39.756c0 173.335 119.355 323.271 287.036 362.403 139.251 31.916 287.73-25.637 372.29-144.281 46.174-65.358 69.625-138.54 71.117-218.121zM58.819-103.887h900.239c-6.383 11.379-98.038 165.547-135.695 228.772-7.823 13.495-7.823 36.946 9.228 43.364 16.981 7.129 34.691-13.512 41.144-24.093 49.019-85.254 93.077-162.702 142.096-248.667 14.917-26.296-3.469-54.708-34.813-54.708h-490.24c-149.173 0-299.108 0.711-448.315-0.711-33.39-0.069-53.98 30.476-35.524 61.022 48.308 81.004 93.788 164.124 140.673 245.822 9.956 17.762 25.585 25.585 42.636 21.318 19.184-9.228 14.917-29.123 1.422-52.575-24.874-44.041-38.369-66.781-63.936-111.532-13.495-19.895-55.419-84.56-68.914-108.011zM654.902 498.614c-0.168-80.756-65.603-146.173-146.349-146.31h-0.013c-80.293 0-145.703 66.070-145.703 146.363 0 0.057 0 0.124 0 0.191 0 80.719 65.436 146.154 146.154 146.154 0.073 0 0.146 0 0.22 0h-0.011c80.276 0 145.703-66.070 145.703-146.345zM509.199 602.341c-0.125 0.001-0.273 0.001-0.421 0.001-56.904 0-103.033-46.129-103.033-103.033s46.129-103.033 103.033-103.033c0.648 0 1.295 0.006 1.94 0.018l-0.097-0.001c55.419 0.711 101.593 47.614 100.882 103.727 0 55.419-46.174 102.339-102.339 102.339z" />
<glyph unicode="&#xe916;" glyph-name="failure, ffffff3" d="M512.007-160c-282.764 0-512.007 229.243-512.007 511.993s229.243 512.007 512.007 512.007 511.993-229.243 511.993-512.007-229.229-511.993-511.993-511.993zM512.007 815.419c-255.954 0.043-463.469-207.472-463.469-463.426s207.515-463.426 463.469-463.426 463.426 207.487 463.426 463.426-207.487 463.469-463.426 463.469zM481.228 555.054c-0.136 8.568-7.114 15.461-15.702 15.461-0.046 0-0.092 0-0.137-0.001h0.007c-53.849 0-99.503 32.392-121.474 47.967-5.054 3.583-9.022 6.367-11.749 7.937-2.318 1.369-5.109 2.179-8.088 2.179-5.739 0-10.778-3.003-13.629-7.523l-0.039-0.066c-1.387-2.25-2.209-4.977-2.209-7.896 0-5.63 3.058-10.547 7.603-13.179l0.073-0.039c2.127-1.271 5.282-3.498 9.279-6.367 24.597-17.545 75.991-53.949 140.233-53.949 0.056-0.001 0.121-0.001 0.187-0.001 8.598 0 15.582 6.91 15.702 15.479v0.011zM682.391 626.448c-2.698-1.585-6.71-4.368-11.792-7.952-21.914-15.561-67.568-47.953-121.346-47.953-0.198 0.009-0.431 0.014-0.665 0.014-8.547 0-15.475-6.928-15.475-15.475s6.928-15.475 15.475-15.475c0.234 0 0.466 0.005 0.697 0.015l-0.033-0.001c64.242 0 115.507 36.404 140.147 53.892 4.012 2.855 7.138 5.139 9.308 6.381 4.658 2.665 7.746 7.605 7.746 13.266 0 2.928-0.826 5.664-2.259 7.986l0.038-0.066c-2.894 4.587-7.935 7.589-13.676 7.589-3.011 0-5.829-0.825-8.24-2.262l0.074 0.041zM620.633 228.534l-99.746 47.582c-1.778 0.872-3.87 1.383-6.081 1.383-2.454 0-4.761-0.629-6.769-1.733l0.073 0.037-88.211-47.596c-4.912-2.856-8.162-8.094-8.162-14.092 0-2.587 0.605-5.032 1.68-7.203l-0.042 0.095c2.308-5.114 7.363-8.609 13.234-8.609 2.47 0 4.795 0.619 6.83 1.709l-0.077-0.038 81.901 44.255 93.251-44.512c1.775-0.887 3.865-1.413 6.077-1.428h0.005c6.105 0.086 11.308 3.862 13.484 9.195l0.036 0.099c0.862 1.913 1.364 4.147 1.364 6.498 0 6.228-3.523 11.633-8.684 14.331l-0.089 0.042zM366.892 500.677h-246.032c-10.707 0-19.401-10.379-19.401-23.184s8.68-23.213 19.401-23.213h48.139c19.986-46.711 4.454-95.649 4.454-95.649-33.791-89.025 0-146.728 0-146.728 19.786-47.81 4.939-104.686 4.939-104.686 75.834 14.833 131.881-15.704 131.881-15.704 37.917 45.326 4.954 115.407 4.954 115.407-22.256 56.047 0 117.877 0 117.877 19.687 48.167 16.574 98.604 11.549 129.44h40.115c10.721 0 19.401 10.379 19.401 23.198s-8.623 23.241-19.401 23.241zM301.522 336.946l-1.542-4.211c-10.379-28.852-23.284-64.756 5.396-138.948 17.545-45.283 6.738-71.066-0.628-82.044 0 0 0 0 0 0-1.285 0.514-2.527 0.971-3.783 1.428-14.087 5.558-30.551 9.939-47.637 12.393l-1.201 0.141-4.012 0.528c-6.282 0.775-13.62 1.251-21.057 1.313l-0.085 0.001c-1.528 0-3.012-0.086-4.54-0.143-5.71-0.143-11.15-0.542-16.375-1.199-1.428-0.171-2.855-0.286-4.183-0.485-1.114-0.171-2.127-0.457-3.212-0.628 4.939 23.541 6.567 57.275-7.138 81.616-21.414 37.96-20.472 102.287-0.286 160.59 7.695 22.285 0.328 60.501-6.595 86.941h126.257c4.939-22.842 9.151-65.441-9.279-117.363zM904.039 500.677h-246.103c-10.721 0-19.401-10.379-19.401-23.184s8.68-23.213 19.401-23.213h43.128c-5.025-30.836-8.123-81.273 11.564-129.44 0 0 22.242-61.815 0-117.877 0 0-32.963-70.066 4.954-115.407 0 0 56.047 30.493 131.881 15.704 0 0-14.833 56.875 4.954 104.686 0 0 33.805 57.703 0 146.728 0 0-15.561 48.924 4.454 95.649h45.183c10.707 0 19.401 10.379 19.401 23.198s-8.694 23.184-19.401 23.184zM836.714 367.354c20.186-58.303 21.186-122.616-0.286-160.59-13.762-24.269-12.135-58.075-7.138-81.616-1.085 0.171-2.099 0.457-3.212 0.628-1.428 0.2-2.855 0.3-4.169 0.485-5.225 0.657-10.721 1.056-16.375 1.199-1.528 0-3.012 0.143-4.54 0.143-7.522-0.062-14.86-0.538-22.078-1.405l0.935 0.092-4.012-0.542c-18.287-2.595-34.751-6.977-50.365-13.058l1.527 0.523c-1.256-0.485-2.498-0.942-3.783-1.428 0 0 0 0 0 0-7.366 10.978-18.159 36.761-0.628 82.030 28.68 74.235 15.775 110.096 5.396 138.948l-1.542 4.211c-18.43 51.922-14.276 94.521-9.279 117.363h126.257c-6.924-26.439-14.276-64.656-6.595-86.941z" />
<glyph unicode="&#xe917;" horiz-adv-x="1023" d="M338.534 153.665c-0.002 0-0.004 0-0.006 0-14.523 0-26.297 11.774-26.297 26.297 0 7.277 2.956 13.865 7.733 18.626l344.92 344.877c4.792 4.916 11.479 7.965 18.878 7.965 14.555 0 26.354-11.799 26.354-26.354 0-7.399-3.049-14.086-7.959-18.872l-0.006-0.005-344.933-344.876c-4.746-4.731-11.294-7.656-18.525-7.656-0.016 0-0.031 0-0.047 0h0.002z" />
<glyph unicode="&#xe918;" horiz-adv-x="1023" d="M511.086-158.629c-281.783 0-511.086 229.246-511.086 511.072s229.303 511.057 511.072 511.057 511.086-229.274 511.086-511.043-229.303-511.086-511.086-511.086zM511.086 810.792c-252.743 0-458.392-205.62-458.392-458.349s205.648-458.335 458.392-458.335 458.377 205.691 458.377 458.377-205.691 458.349-458.377 458.349z" />
<glyph unicode="&#xe919;" glyph-name="feile" horiz-adv-x="1528" d="M68.776 864h76.418c37.984 0 68.776-30.792 68.776-68.776s-30.792-68.776-68.776-68.776h-76.418c-37.984 0-68.776 30.792-68.776 68.776s30.792 68.776 68.776 68.776zM489.075 864h970.507c37.984 0 68.776-30.792 68.776-68.776s-30.792-68.776-68.776-68.776h-970.507c-37.984 0-68.776 30.792-68.776 68.776s30.792 68.776 68.776 68.776zM68.776 420.776h76.418c37.984 0 68.776-30.792 68.776-68.776s-30.792-68.776-68.776-68.776h-76.418c-37.984 0-68.776 30.792-68.776 68.776s30.792 68.776 68.776 68.776zM489.075 420.776h970.507c37.984 0 68.776-30.792 68.776-68.776s-30.792-68.776-68.776-68.776h-970.507c-37.984 0-68.776 30.792-68.776 68.776s30.792 68.776 68.776 68.776zM68.776-22.448h76.418c37.984 0 68.776-30.792 68.776-68.776s-30.792-68.776-68.776-68.776h-76.418c-37.984 0-68.776 30.792-68.776 68.776s30.792 68.776 68.776 68.776zM489.075-22.448h970.507c37.984 0 68.776-30.792 68.776-68.776s-30.792-68.776-68.776-68.776h-970.507c-37.984 0-68.776 30.792-68.776 68.776s30.792 68.776 68.776 68.776z" />
<glyph unicode="&#xe91a;" glyph-name="fengxiang, 3e3a399" d="M865.719 157.055c-0.065 0-0.142 0-0.219 0-47.766 0-90.559-21.287-119.413-54.891l-0.176-0.21-313.868 198.479c12.263 26.991 19.409 58.533 19.409 91.743 0 34.523-7.723 67.242-21.534 96.524l0.586-1.381 291.96 166.979c24.428-34.733 64.335-57.15 109.477-57.15 73.693 0 133.433 59.74 133.433 133.433s-59.74 133.433-133.433 133.433c-73.692 0-133.431-59.739-133.433-133.43v0c0.022-7.882 0.744-15.58 2.106-23.055l-0.12 0.793-300.735-172.075c-41.572 50.296-103.968 82.104-173.793 82.104-0.062 0-0.124 0-0.186 0h0.010c-124.78 0-225.79-101.272-225.79-226.114s101.133-226.114 225.729-226.114c0.070 0 0.152 0 0.235 0 71.106 0 134.507 32.993 175.728 84.505l0.346 0.447 314.622-198.94c-5.858-15.864-9.248-34.186-9.248-53.299 0-87.382 70.837-158.219 158.219-158.219s158.219 70.837 158.219 158.219c0 87.351-70.788 158.17-158.127 158.219h-0.005zM831.172 805.62c0.027 0 0.060 0 0.092 0 41.714 0 75.53-33.816 75.53-75.53s-33.816-75.53-75.53-75.53c-41.709 0-75.521 33.807-75.53 75.514v0.001c0 0.032 0 0.070 0 0.108 0 41.663 33.775 75.438 75.438 75.438v0zM223.974 220.592c-93.574 0-169.489 76.038-169.489 169.874 0.21 93.447 76.012 169.119 169.489 169.119 93.606 0 169.489-75.883 169.489-169.489s-75.883-169.489-169.489-169.489v0zM865.719-101.851c-0.091 0-0.2 0-0.308 0-55.438 0-100.379 44.941-100.379 100.379s44.941 100.379 100.379 100.379c55.437 0 100.378-44.941 100.379-100.378v0c0-0.023 0-0.050 0-0.077 0-55.314-44.775-100.17-100.058-100.301h-0.013z" />
<glyph unicode="&#xe91b;" glyph-name="del, 6664643" horiz-adv-x="984" d="M606.356 628.881c-24.743 0-46.408-21.65-46.408-46.408v-559.947c0-24.758 21.65-46.408 46.408-46.408s46.408 21.65 46.408 46.408v559.947c0 27.851-18.557 46.408-46.408 46.408zM374.329 628.881c-24.743 0-46.393-21.65-46.393-46.408v-559.947c0-24.758 21.65-46.408 46.393-46.408s46.408 21.65 46.408 46.408v559.947c0 27.851-18.557 46.408-46.408 46.408zM931.184 768.091h-371.236v49.501c0 24.743-21.65 46.408-46.408 46.408-9.279 0-15.464-3.093-21.65-6.186-6.186 3.093-15.464 3.093-24.743 3.093-24.743 0-46.408-21.65-46.408-46.408v-49.486l-266.092 3.078h-108.237c-24.758 0-46.408-21.65-46.408-46.393s21.65-46.408 46.408-46.408h49.501v-742.502c0-52.594 40.222-92.787 92.787-92.787h603.263c52.594 0 92.787 40.222 92.787 92.787v649.686c0 24.743-21.65 46.408-46.408 46.408s-46.408-21.65-46.408-46.408v-559.947c0-74.244-18.557-89.709-92.787-89.709h-414.522c-74.244 0-92.787 15.464-92.787 92.787v649.686h745.551c24.743 0 46.408 21.665 46.408 46.408-6.186 24.743-27.851 46.408-52.594 46.408zM791.974 10.154v0z" />
<glyph unicode="&#xe91c;" glyph-name="dianpu, 9fa0a0" d="M1023.434 454.395h0.591l-84.253 332.372c-11.62 44.736-51.642 77.233-99.255 77.233-0.005 0-0.011 0-0.016 0h-657.003c-47.593-0.023-87.591-32.513-99.049-76.521l-0.157-0.712-84.292-332.372h0.591c-0.296-4.59-0.591-9.18-0.591-13.899 0-55.967 19.543-106.213 50.413-141.108v-356.993c0.007-56.548 45.847-102.388 102.394-102.395h717.626c56.554 0 102.4 45.842 102.408 102.394v356.069c31.359 34.997 51.197 85.578 51.197 142.047 0 4.68-0.296 9.296-0.591 13.899zM133.946 774.179c5.806 22.342 25.796 38.572 49.576 38.572 0.028 0 0.055 0 0.083 0h656.897c0.024 0 0.052 0 0.080 0 23.77 0 43.75-16.232 49.458-38.217l0.078-0.355 68.143-268.574h-892.432l68.143 268.574zM972.301 454.395c0.347-4.5 0.527-9.064 0.553-13.719v-0.321c-0.077-75.69-46.916-139.501-102.421-139.501-28.903 0-56.816 17.383-76.539 47.752l-42.956 66.009-42.917-66.009c-19.723-30.369-47.572-47.777-76.539-47.777s-56.765 17.344-76.5 47.713l-42.917 66.009-42.917-66.009c-19.749-30.369-47.662-47.777-76.565-47.777s-56.79 17.409-76.539 47.777l-42.917 66.009-42.982-66.009c-19.749-30.369-47.572-47.777-76.539-47.777-55.505 0-102.408 64.016-102.408 139.732 0 4.68 0.18 9.334 0.527 13.899zM870.433-108.803h-717.625c-28.277 0.015-51.199 22.923-51.236 51.194v318.605c15.266-7.155 33.139-11.371 51.986-11.468h0.034c48.279 0 91.286 27.772 119.456 71.062 28.17-43.303 71.19-71.062 119.456-71.062s91.286 27.772 119.482 71.062c28.144-43.303 71.178-71.062 119.456-71.062s91.286 27.772 119.456 71.062c28.247-43.252 71.229-71.023 119.534-71.023 18.567 0.093 36.156 4.18 51.983 11.445l-0.786-0.323v-318.293c-0.037-28.261-22.937-51.161-51.194-51.197h-0.004z" />
<glyph unicode="&#xe91d;" glyph-name="close2" d="M512-128c-264.654 0-480 215.346-480 480s215.346 480 480 480c264.676 0 480-215.346 480-480s-215.302-480-480-480zM512 790.262c-241.658 0-438.24-196.582-438.24-438.262 0-241.658 196.604-438.262 438.262-438.262 241.68 0 438.262 196.626 438.262 438.262 0 241.68-196.604 438.262-438.284 438.262zM657.026 183.084c-5.346 0-10.691 2.029-14.771 6.087l-288.982 289.026c-8.16 8.16-8.16 21.36 0 29.52s21.36 8.16 29.52 0l288.982-289.026c8.16-8.138 8.16-21.36 0-29.52-4.058-4.058-9.382-6.087-14.749-6.087zM363.92 183.062c-5.346 0-10.669 2.051-14.749 6.087-8.16 8.16-8.16 21.36 0 29.52l296.138 296.138c8.16 8.16 21.36 8.16 29.52 0 8.138-8.16 8.138-21.36 0-29.52l-296.138-296.138c-4.080-4.036-9.426-6.087-14.771-6.087z" />
<glyph unicode="&#xe91e;" glyph-name="close3" d="M512-128c-264.654 0-480 215.346-480 480s215.346 480 480 480c264.676 0 480-215.346 480-480s-215.302-480-480-480zM512 790.262c-241.658 0-438.24-196.582-438.24-438.262 0-241.658 196.604-438.262 438.262-438.262 241.68 0 438.262 196.626 438.262 438.262 0 241.68-196.604 438.262-438.284 438.262zM657.026 183.084c-5.346 0-10.691 2.029-14.771 6.087l-288.982 289.026c-8.16 8.16-8.16 21.36 0 29.52s21.36 8.16 29.52 0l288.982-289.026c8.16-8.138 8.16-21.36 0-29.52-4.058-4.058-9.382-6.087-14.749-6.087zM363.92 183.062c-5.346 0-10.669 2.051-14.749 6.087-8.16 8.16-8.16 21.36 0 29.52l296.138 296.138c8.16 8.16 21.36 8.16 29.52 0 8.138-8.16 8.138-21.36 0-29.52l-296.138-296.138c-4.080-4.036-9.426-6.087-14.771-6.087z" />
<glyph unicode="&#xe91f;" glyph-name="geren_xiala" horiz-adv-x="899" d="M767.729 183.001c-4.519 4.515-10.76 7.308-17.653 7.308-13.793 0-24.975-11.182-24.975-24.975 0-6.9 2.798-13.146 7.322-17.667v0c72.328-71.954 117.090-171.558 117.090-281.617 0-0.379-0.001-0.758-0.002-1.137v0.059c0-13.799 11.186-24.986 24.986-24.986s24.986 11.186 24.986 24.986v0c0.001 0.341 0.001 0.744 0.001 1.147 0 123.824-50.369 235.883-131.735 316.807l-0.020 0.020zM449.755 864c-165.36 0-299.841-134.522-299.841-299.841 0-117.87 68.419-220.129 167.649-269.072-185.353-58.548-317.41-228.889-317.563-430.096v-0.019c0-13.799 11.186-24.986 24.986-24.986s24.986 11.186 24.986 24.986v0c0 0.008 0 0.017 0 0.026 0 216.75 172.515 393.206 387.727 399.552l0.585 0.014c3.81-0.137 7.62-0.233 11.458-0.233 165.333 0 299.828 134.495 299.828 299.828s-134.495 299.841-299.814 299.841zM453.867 314.398c-1.263 0.232-2.718 0.366-4.204 0.37h-0.004q-5.715 0-11.403-0.151c-132.466 6.003-238.481 115.663-238.481 249.582 0 137.784 112.1 249.856 249.87 249.856s249.856-112.072 249.856-249.856c0-136.359-109.838-247.554-245.69-249.802z" />
<glyph unicode="&#xe920;" glyph-name="daohang" horiz-adv-x="1109" d="M592.409-159.533c-10.166 2.080-17.79 10.702-18.323 21.196l-0.002 0.055-27.677 553.838-530.11 158.234c-9.515 2.89-16.321 11.585-16.321 21.869 0 0.363 0.008 0.725 0.025 1.084l-0.002-0.051c0.454 10.626 7.948 19.379 17.916 21.74l0.158 0.032 1060.633 244.998c8.346 1.992 15.992-1.795 21.431-7.933 0.287-0.215 0.682-0.108 0.951-0.359s0.485-1.077 0.915-1.526c0.718-1.005 2.046-1.418 2.585-2.603 0.323-0.592 0-1.31 0.215-1.938 4.2-6.695 5.977-14.664 2.226-22.095l-489.187-974.121c-3.921-7.695-11.784-12.873-20.857-12.873-1.619 0-3.2 0.165-4.726 0.479l0.151-0.026zM113.471 593.157l448.624-133.842 426.547 336.068z" />
<glyph unicode="&#xe922;" glyph-name="guanzhu_bk" horiz-adv-x="1144" d="M572.226-160.028c-0.053 0-0.115-0.001-0.177-0.001-5.224 0-10.139 1.325-14.427 3.656l0.159-0.079c-104.538 61.297-195.033 128.048-277.843 203.121l1.383-1.235c-80.749 72.883-145.208 147.555-191.548 221.654-59.737 94.565-89.774 189.131-89.774 280.679 0.391 174.49 141.743 315.842 316.219 316.233 59.011 0 121.668-22.353 176.46-62.014 31.978-23.526 59.653-51.858 79.547-81.978 21.952 32.072 48.319 59.217 78.598 81.327l0.936 0.651c54.792 40.346 117.449 62.014 176.46 62.014 174.574-0.196 316.038-141.66 316.233-316.233 0-91.548-30.106-186.113-89.117-280.679-46.424-74.099-110.939-148.77-191.562-221.752-136.756-123.442-271.095-198.114-276.46-201.69-4.4-2.223-9.586-3.54-15.076-3.576h-0.012zM316.219 803.774c-141.276-0.333-255.707-114.794-255.993-256.049v-0.028c0-183.012 141.632-349.259 260.226-456.496 74.485-66.925 156.806-128.353 244.441-181.945l7.333-4.169c94.999 57.466 177.34 118.917 253.209 187.402l-1.435-1.275c118.664 107.223 260.226 273.456 260.226 456.566-0.333 141.276-114.794 255.707-256.049 255.993h-0.028c-102.291 0-202.347-84.409-227.605-160.226-4.197-11.882-15.254-20.276-28.297-20.452h-0.021c-0.005 0-0.011 0-0.017 0-13.12 0-24.262 8.471-28.253 20.242l-0.062 0.21c-25.244 75.817-125.244 160.226-227.717 160.226z" />
<glyph unicode="&#xe923;" glyph-name="houtai-caidan, 3e3a393" d="M190.518 511.556c-70.556 0-127.722-57.181-127.722-127.729 0-70.527 57.167-127.719 127.722-127.719 70.516 0 127.729 57.192 127.729 127.719 0 70.548-57.213 127.729-127.729 127.729zM190.518 298.677c-46.981 0-85.153 38.187-85.153 85.149 0 46.974 38.172 85.156 85.153 85.156 46.941 0 85.149-38.183 85.149-85.156 0-46.963-38.208-85.149-85.149-85.149zM832.278 511.556c-70.556 0-127.726-57.181-127.726-127.729 0-70.527 57.17-127.719 127.726-127.719 70.513 0 127.726 57.192 127.726 127.719 0 70.548-57.213 127.729-127.726 127.729zM832.278 298.677c-46.941 0-85.149 38.187-85.149 85.149 0 46.974 38.208 85.156 85.149 85.156 46.938 0 85.149-38.183 85.149-85.156 0-46.963-38.211-85.149-85.149-85.149zM508.653 511.556c-70.556 0-127.722-57.181-127.722-127.729 0-70.527 57.167-127.719 127.722-127.719 70.516 0 127.726 57.192 127.726 127.719 0 70.548-57.21 127.729-127.726 127.729zM508.653 298.677c-46.938 0-85.149 38.187-85.149 85.149 0 46.974 38.211 85.156 85.149 85.156 46.945 0 85.153-38.183 85.153-85.156 0-46.963-38.208-85.149-85.153-85.149z" />
<glyph unicode="&#xe924;" glyph-name="houtai-fanhui, 3e3a394" d="M738.302 757.464l-431.753-406.521 431.753-406.501c9.429-8.88 9.429-23.335 0-32.213s-24.837-8.877-34.272 0l-449.37 422.058c-9.435 8.878-9.435 23.332 0 32.213l449.37 423.182c9.436 8.892 24.843 8.892 34.272 0 9.429-7.784 9.429-23.326 0-32.218z" />
<glyph unicode="&#xe927;" glyph-name="kabao, ffffff8" d="M867.379 403.2h-11.315v124.928c-0.058 47.595-38.626 86.162-86.215 86.221h-168.966l-218.522 130.918c-11.365 6.887-25.098 10.962-39.784 10.962-28.109 0-52.73-14.931-66.365-37.295l-0.194-0.342-62.413-104.243h-47.974c-47.573-0.087-86.111-38.644-86.17-86.215v-474.988c0.058-47.595 38.626-86.162 86.215-86.221h604.166c47.595 0.058 86.162 38.626 86.221 86.215v125.088h11.315c41.951 0.029 75.952 34.030 75.981 75.978v72.809c0 0.046 0 0.1 0 0.154 0 41.973-34.012 76.003-75.978 76.032h-0.003zM316.723 694.17c5.366 8.772 14.894 14.537 25.767 14.537 5.725 0 11.076-1.598 15.633-4.372l-0.133 0.075 150.682-90.112h-239.77zM803.123 53.094c-0.029-18.453-14.98-33.404-33.431-33.434h-604.163c-18.453 0.029-33.404 14.98-33.434 33.431v475.037c0.029 18.453 14.98 33.404 33.431 33.434h604.163c18.453-0.029 33.404-14.98 33.434-33.431v-124.931h-70.042c-41.951-0.029-75.952-34.030-75.981-75.978v-73.014c0.029-41.951 34.030-75.952 75.978-75.981h70.249zM903.578 254.157c-0.029-20.065-16.287-36.323-36.349-36.352h-134.147c-20.065 0.029-36.323 16.287-36.352 36.349v72.861c0.029 20.065 16.287 36.323 36.349 36.352h134.301c20.065-0.029 36.323-16.287 36.352-36.349v-0.003zM746.65 290.56c0-20.161 16.344-36.506 36.506-36.506s36.506 16.344 36.506 36.506c0 20.161-16.344 36.506-36.506 36.506v0c-20.161 0-36.506-16.344-36.506-36.506v0z" />
<glyph unicode="&#xe928;" glyph-name="kefu_icon, 3e3a3911" horiz-adv-x="1030" d="M196.706 69.452l-7.771 5.579c-58.56 41.822-104.562 91.072-136.763 146.414-32.789 54.938-52.173 121.166-52.173 191.922 0 0.36 0.001 0.72 0.002 1.079v-0.056c0 0.009 0 0.019 0 0.030 0 63.51 14.872 123.546 41.324 176.816l-1.041-2.318c25.876 53.555 62.942 101.64 110.157 142.98 97.366 85.197 226.903 132.101 364.739 132.101s267.31-46.919 364.739-132.101c47.214-41.324 84.28-89.409 110.157-142.98 25.414-50.981 40.288-111.049 40.288-174.591s-14.874-123.609-41.33-176.911l1.042 2.32c-25.861-53.524-62.927-101.609-110.141-142.98-97.366-85.197-226.903-132.101-364.754-132.101h-89.798l-228.675-124.657zM243.625-73.668l186.154 85.337h85.384c258.234 0 468.306 180.652 468.306 402.721 0 107.841-48.893 209.155-137.68 285.26-88.383 75.764-205.782 117.461-330.594 117.461v0c-258.234 0-468.321-180.667-468.321-402.721 0-130.889 75.251-257.985 196.737-333.050zM777.469 358.147c-0.009 0-0.020 0-0.031 0-31.071 0-56.259 25.188-56.259 56.259s25.188 56.259 56.259 56.259c31.071 0 56.259-25.188 56.259-56.259v0c-0.044-31.043-25.188-56.198-56.222-56.259h-0.006zM515.178 358.147c-31.071 0-56.259 25.188-56.259 56.259s25.188 56.259 56.259 56.259c31.071 0 56.259-25.188 56.259-56.259v0c-0.035-31.057-25.202-56.224-56.256-56.259h-0.003zM252.919 358.147c-31.071 0-56.259 25.188-56.259 56.259s25.188 56.259 56.259 56.259c31.071 0 56.259-25.188 56.259-56.259 0-0.005 0-0.011 0-0.016v0.001c-0.027-31.057-25.201-56.226-56.258-56.244h-0.002z" />
<glyph unicode="&#xe92a;" glyph-name="menu, ffffff9" horiz-adv-x="4779" d="M2901.333 352c0-282.77-229.23-512-512-512s-512 229.23-512 512c0 282.77 229.23 512 512 512s512-229.23 512-512zM4778.667 352c0-282.77-229.23-512-512-512s-512 229.23-512 512c0 282.77 229.23 512 512 512s512-229.23 512-512zM1024 352c0-282.77-229.23-512-512-512s-512 229.23-512 512c0 282.77 229.23 512 512 512s512-229.23 512-512z" />
<glyph unicode="&#xe92b;" glyph-name="no, cccccc2" horiz-adv-x="1025" d="M577.032 350.524l430.901 430.901c8.705 8.754 14.085 20.821 14.085 34.145 0 26.747-21.683 48.429-48.429 48.429-14.723 0-27.911-6.57-36.793-16.937l-0.055-0.066-430.901-430.901-426.217 430.901c-7.73 5.848-17.505 9.367-28.102 9.367-25.867 0-46.837-20.97-46.837-46.837 0-10.597 3.519-20.372 9.453-28.22l-0.085 0.118 430.901-430.901-430.901-426.217c-8.511-8.511-13.774-20.268-13.774-33.254 0-25.973 21.055-47.029 47.029-47.029 12.987 0 24.744 5.264 33.254 13.774l430.901 430.901 430.901-430.901c8.511-8.511 20.268-13.774 33.254-13.774 25.973 0 47.029 21.055 47.029 47.029 0 12.987-5.264 24.744-13.774 33.254v0z" />
<glyph unicode="&#xe92c;" glyph-name="huifu, 3e3a395" horiz-adv-x="1019" d="M1008.664 29.272l-0.583 1.268-144.105 259.011c-5.403 9.578-15.512 15.94-27.107 15.94-17.131 0-31.019-13.888-31.019-31.019 0-5.536 1.45-10.734 3.992-15.233l-0.080 0.155 142.717-256.493c5.672-13.314 4.387-20.219 3.427-21.813-1.059-0.908-2.445-1.461-3.961-1.461-0.241 0-0.478 0.014-0.711 0.041l0.028-0.003h-430.96l49.691 58.139c4.601 5.387 7.4 12.433 7.4 20.134 0 17.17-13.919 31.089-31.089 31.089-9.47 0-17.951-4.234-23.653-10.912l-0.036-0.043-86.052-100.856c-4.616-5.389-7.426-12.444-7.426-20.155 0-9.419 4.192-17.859 10.812-23.556l0.041-0.034 100.856-86.052c5.456-4.873 12.695-7.851 20.63-7.851 17.138 0 31.031 13.893 31.031 31.031 0 9.624-4.381 18.224-11.257 23.916l-0.052 0.042-26.885 23.012h396.793c23.458 0 44.551 11.086 56.717 29.661 8.293 12.8 19.397 40.336 0.857 82.059zM698.916 458.622l-41.586 15.593c-3.081 1.125-6.638 1.776-10.347 1.776-17.138 0-31.031-13.893-31.031-31.031 0-13.022 8.021-24.171 19.392-28.775l0.208-0.074 124.108-46.538c3.234-1.249 6.975-1.972 10.886-1.972 13.224 0 24.515 8.271 28.984 19.923l0.072 0.213 46.556 124.108c1.381 3.386 2.182 7.315 2.182 11.431 0 17.138-13.893 31.031-31.031 31.031-13.429 0-24.866-8.53-29.187-20.468l-0.068-0.216-24.109-64.273-199.468 358.411c-11.755 23.064-30.672 36.24-52.022 36.24v0c-22.464 0-42.529-14.308-55.123-39.205l-117.854-209.354c-2.728-4.524-4.341-9.986-4.341-15.825 0-17.129 13.886-31.014 31.014-31.014 11.816 0 22.088 6.607 27.324 16.329l0.081 0.165 118.111 209.903zM314.186 469.177c-3.829 13.103-15.735 22.513-29.839 22.513-3.018 0-5.935-0.431-8.694-1.234l0.219 0.055-127.518-36.275c-13.121-3.817-22.548-15.732-22.548-29.849 0-17.138 13.893-31.031 31.031-31.031 0.029 0 0.059 0 0.088 0h-0.005c0.029 0 0.063 0 0.098 0 3.018 0 5.933 0.438 8.686 1.255l-0.216-0.055 59.373 16.912-219.892-390.642-1.011-3.598c-7.728-27.553-4.027-53.118 10.418-72.207 13.211-17.392 34.081-27.416 57.282-27.416h233.463c17.143 0 31.040 13.897 31.040 31.040s-13.897 31.040-31.040 31.040v0h-233.446c-1.713 0-5.912 0.274-7.865 2.827-1.594 2.108-2.553 7.008-0.908 14.77l213.21 378.973 14.65-51.61c3.82-13.113 15.724-22.535 29.83-22.55h0.002c0.024 0 0.052 0 0.081 0 3.023 0 5.944 0.438 8.703 1.255l-0.217-0.055c13.108 3.812 22.525 15.715 22.525 29.817 0 3.032-0.435 5.963-1.247 8.733l0.055-0.219z" />
<glyph unicode="&#xe92d;" glyph-name="jian" d="M512 856.32c-278.528 0-504.32-225.792-504.32-504.32s225.792-504.32 504.32-504.32c278.528 0 504.32 225.792 504.32 504.32v0c0 278.528-225.792 504.32-504.32 504.32v0zM510.925-102.298c-249.754 0.563-452.403 205.517-451.533 455.68 0.87 248.218 204.39 451.226 453.581 451.123s453.581-203.52 453.376-452.506c0-0.199 0-0.435 0-0.671 0-250.421-203.006-453.427-453.427-453.427-0.792 0-1.584 0.002-2.375 0.006h0.122zM286.054 319.13h453.632c0.076-0.001 0.166-0.001 0.256-0.001 18.323 0 33.178 14.854 33.178 33.178 0 0 0 0.001 0 0.001v0c0 18.323-14.854 33.178-33.178 33.178v0h-453.888c-18.323 0-33.178-14.854-33.178-33.178v0c0-18.323 14.854-33.178 33.178-33.178v0z" />
<glyph unicode="&#xe92e;" glyph-name="person-icon, 9fa0a02" d="M925.013-154.121c-19.823 0.912-35.624 16.911-36.218 36.732l-0.001 0.056-1.707 9.861c-13.012 90.753-56.492 169.548-119.561 227.298l-0.285 0.258c-62.235 61.999-147.778 100.64-242.345 101.64l-0.191 0.002h-25.41c-95.15-0.813-181.113-39.483-243.693-101.66l0.019 0.019c-63.063-58.045-106.195-136.883-118.484-225.58l-0.224-1.975-2.276-10.050c-0.664-19.549-16.025-35.305-35.346-36.592l-0.115-0.006c-19.922 0.707-35.891 16.677-36.597 36.533l-0.002 0.066v4.361c0.202 4.972 1.299 9.636 3.132 13.909l-0.098-0.256 0.948 1.707v1.896c23.302 159.336 125.447 290.457 264.877 354.001l2.88 1.175 16.687 7.396-15.17 10.24c-83.038 57.467-136.743 152.21-136.743 259.497 0 1.237 0.007 2.473 0.021 3.707l-0.002-0.188c-0.027 1.508-0.042 3.286-0.042 5.069 0 85.776 35.047 163.366 91.602 219.233l0.031 0.031c54.411 57.862 131.462 93.899 216.929 93.899 1.536 0 3.069-0.012 4.6-0.035l-0.231 0.003c1.298 0.020 2.83 0.032 4.364 0.032 85.646 0 162.878-36.027 217.367-93.753l0.136-0.145c56.252-55.844 91.074-133.21 91.074-218.71 0-1.977-0.019-3.949-0.056-5.917l0.004 0.295c0.018-1.27 0.029-2.769 0.029-4.271 0-107.291-53.709-202.037-135.707-258.819l-1.045-0.684-15.36-10.24 16.877-7.396c73.895-32.775 135.113-82.553 180.607-144.584l0.869-1.241c46.584-61.052 78.172-135.897 87.968-217.444l0.21-2.147c0-1.138 0-2.465 0-4.741v-2.655l1.138-4.361c-1.24-19.065-16.396-34.22-35.348-35.455l-0.113-0.006zM512 784.924c-0.599 0.006-1.307 0.009-2.016 0.009-66.377 0-126.247-27.863-168.55-72.531l-0.1-0.106c-43.029-43.003-69.644-102.425-69.644-168.064 0-1.715 0.018-3.427 0.054-5.133l-0.004 0.255c-0.019-1.14-0.030-2.485-0.030-3.832 0-63.614 24.529-121.498 64.645-164.712l-0.14 0.153c38.8-45.477 95.714-74.511 159.439-75.848l0.229-0.004h32.237c64.024 1.283 121.017 30.329 159.609 75.553l0.249 0.299c40.197 43.111 64.873 101.151 64.873 164.955 0 1.075-0.007 2.148-0.021 3.219l0.002-0.163c0.037 1.559 0.058 3.395 0.058 5.237 0 65.751-26.857 125.228-70.198 168.062l-0.023 0.023c-42.706 44.784-102.831 72.631-169.46 72.631-0.424 0-0.849-0.001-1.273-0.003h0.066z" />
<glyph unicode="&#xe930;" glyph-name="sanjiao" horiz-adv-x="2050" d="M2049.625 864l-1025.625-1024-1024 1024h2049.625z" />
<glyph unicode="&#xe931;" glyph-name="shaixuan" horiz-adv-x="964" d="M935.378 703.202l0.429-0.386s-194.432-202.619-279.29-290.224c-6.011-6.197-17.79-17.575-21.039-25.676-3.392-8.459-2.977-26.592-2.977-35.781 0-167.554 2.161-475.811 2.161-475.811s0.587-35.337-34.078-35.351c-26.85 0-28.167 27.193-28.167 35.351 0 229.469-0.1 359.238-0.143 485.272 0 33.476-2.505 40.074 1.016 52.197 4.122 14.169 28.925 32.732 39.516 42.636 84.657 79.118 280.42 291.312 280.42 291.312l-0.129 0.343c6.648 5.772 10.842 14.22 10.892 23.65v0.009c0 17.432-13.683 31.587-30.585 31.587h-783.039c-16.903 0-30.614-14.169-30.614-31.587 0.057-9.442 4.261-17.891 10.881-23.625l0.039-0.033-0.1-0.343s188.292-201.474 274.652-284.814c8.587-8.23 39.33-32.918 44.611-48.962 3.149-9.589 1.732-57.721 1.732-57.721v-236.582s-4.022-13.31-30.557-13.21c-24.503 0.086-29.698 13.31-29.698 13.31s-3.392 123.186 0 237.383c0.243 7.843-1.431 24.331-3.721 30.9-3.063 8.587-14.241 20.123-20.567 25.991-89.309 82.596-279.089 289.766-279.089 289.766l0.415 0.386c-17.5 17.084-28.353 40.908-28.353 67.268 0 0.1 0 0.201 0 0.301v-0.015c0 51.524 40.446 93.259 90.368 93.259h783.053c49.921 0 90.368-41.735 90.368-93.259 0-0.061 0-0.133 0-0.206 0-26.388-10.87-50.238-28.376-67.315l-0.019-0.019z" />
<glyph unicode="&#xe935;" glyph-name="srech_hui, 999999" horiz-adv-x="946" d="M426.17-80.106c-259.641 25.961-449.751 258.31-423.864 517.936s258.369 449.751 518.010 423.805 449.751-258.31 423.746-517.951-258.266-449.736-517.892-423.79zM513.072 789.207c-219.694 21.94-416.28-138.927-438.249-358.621s138.898-416.28 358.591-438.234 416.28 138.972 438.249 358.577-138.913 416.28-358.591 438.249zM890.484-159.763c-9.946 1.012-18.586 5.901-24.506 13.109l-0.050 0.063-127.47 155.722c-4.907 6.15-7.873 14.035-7.873 22.614 0 20.111 16.303 36.414 36.414 36.414 11.13 0 21.094-4.994 27.774-12.863l0.043-0.052 127.47-155.781c5.088-6.214 8.172-14.24 8.172-22.986 0-20.111-16.303-36.414-36.414-36.414-1.254 0-2.492 0.063-3.713 0.187l0.154-0.013z" />
<glyph unicode="&#xe936;" glyph-name="succeed, ffffff10" d="M512-5.059c-195.359 0-277.847 171.069-281.242 178.35-1.711 3.554-2.711 7.727-2.711 12.134 0 11.351 6.633 21.153 16.235 25.741l0.172 0.074c14.172 6.656 31.171 0.573 37.903-13.64 2.852-5.96 71.137-145.603 229.637-145.603 172.943 0 226.54 139.551 228.762 145.49 5.453 14.756 21.76 22.292 36.567 16.983 11.030-4.104 18.745-14.543 18.745-26.784 0-3.469-0.62-6.793-1.754-9.868l0.064 0.198c-0.681-1.787-68.516-183.076-282.383-183.076zM694.518 534.513c40.33 0 73.052-32.681 73.052-73.006s-32.696-73.001-73.052-73.001c-40.3 0-72.991 32.676-72.991 73.001s32.691 73.006 72.991 73.006zM329.503 534.513c40.33 0 73.021-32.681 73.021-73.006s-32.686-73.001-73.021-73.001-73.011 32.676-73.011 73.001c0 40.325 32.681 73.006 73.011 73.006zM512-159.647c-282.127 0-511.652 229.509-511.652 511.647s229.53 511.652 511.647 511.652c282.127 0 511.652-229.509 511.652-511.652s-229.524-511.642-511.647-511.642zM512 806.574c-250.665 0-454.605-203.94-454.605-454.574 0-250.624 203.94-454.569 454.605-454.569 250.691 0 454.605 203.94 454.605 454.569 0.031 250.634-203.889 454.574-454.605 454.574z" />
<glyph unicode="&#xe938;" glyph-name="voucher-arrow, 6664644" horiz-adv-x="580" d="M24.185-135.154c14.755-15.328 35.449-24.849 58.367-24.849s43.611 9.521 58.342 24.823l0.025 0.026 414.914 427.093c14.941 15.559 24.142 36.728 24.142 60.047s-9.201 44.488-24.17 60.076l0.028-0.029-414.971 427.093c-14.745 15.35-35.442 24.887-58.367 24.887s-43.622-9.537-58.341-24.86l-0.026-0.027c-14.969-15.552-24.189-36.73-24.189-60.061s9.22-44.509 24.216-60.089l-0.026 0.028 356.633-367.003-356.576-366.945c-14.973-15.561-24.195-36.748-24.195-60.090s9.222-44.529 24.221-60.118l-0.027 0.028z" />
<glyph unicode="&#xe939;" glyph-name="voucher-icon, ff36495" d="M458.057 276.297l-11.886-11.813c-1.539-1.439-2.498-3.482-2.498-5.748 0-2.009 0.753-3.841 1.993-5.231l-0.007 0.008 32.658-32.658c1.419-1.373 3.356-2.219 5.49-2.219 2.296 0 4.363 0.979 5.806 2.543l11.818 11.818c1.569 1.448 2.548 3.515 2.548 5.811 0 2.134-0.846 4.070-2.221 5.492l-32.656 32.656c-1.382 1.233-3.215 1.986-5.223 1.986-2.266 0-4.309-0.959-5.744-2.493l-0.004-0.004zM556.69 636.197l-329.143-329.143c-12.983-12.983-13.861-33.353-1.865-45.312l65.317-65.317c19.493 19.493 49.92 20.517 67.877 2.56s16.933-48.384-2.56-67.877l65.317-65.317c11.959-11.959 32.329-10.971 45.312 1.865l329.143 329.143c12.837 12.837 13.678 33.17 1.719 45.129l-65.353 65.353c-19.493-19.493-49.92-20.517-67.877-2.56s-16.933 48.384 2.56 67.877l-65.28 65.317c-11.959 11.959-32.329 10.971-45.129-1.719zM626.615 566.272c-12.507-29.257-7.863-62.903 14.373-85.138s55.918-26.843 85.138-14.373l37.266-37.266c2.64-2.873 4.259-6.721 4.259-10.948 0-4.647-1.957-8.838-5.092-11.792l-211.683-211.683-16.421 16.421c-1.433 1.337-3.362 2.158-5.484 2.158-2.286 0-4.349-0.953-5.814-2.484l-11.816-11.816c-1.534-1.468-2.487-3.531-2.487-5.817 0-2.121 0.821-4.051 2.162-5.488l-0.004 0.005 16.421-16.421-70.619-70.619c-2.921-3.094-7.051-5.021-11.631-5.021-4.234 0-8.083 1.646-10.942 4.334l-37.258 37.258c12.325 29.074 7.717 62.757-14.629 84.992s-55.918 26.843-84.992 14.629l-37.157 37.193c-2.679 2.851-4.326 6.7-4.326 10.934 0 4.58 1.926 8.709 5.013 11.623l0.008 0.007 70.619 70.619 16.421-16.421c1.433-1.337 3.362-2.158 5.484-2.158 2.286 0 4.349 0.953 5.814 2.484l11.816 11.816c1.534 1.468 2.487 3.531 2.487 5.817 0 2.121-0.821 4.051-2.162 5.488l0.004-0.005-16.421 16.421 211.675 211.675c2.957 3.151 7.148 5.115 11.798 5.115 4.23 0 8.080-1.624 10.961-4.283l-0.011 0.010zM392.741 341.614l-11.813-11.813c-1.569-1.448-2.548-3.515-2.548-5.811 0-2.134 0.846-4.070 2.221-5.492l32.656-32.656c1.382-1.233 3.215-1.986 5.223-1.986 2.266 0 4.309 0.959 5.744 2.493l11.817 11.817c1.539 1.439 2.498 3.482 2.498 5.748 0 2.009-0.753 3.841-1.993 5.231l0.007-0.008-32.658 32.658c-1.419 1.373-3.356 2.219-5.49 2.219-2.296 0-4.363-0.979-5.806-2.543l-0.005-0.005z" />
<glyph unicode="&#xe93a;" glyph-name="weixin, 3eb135" horiz-adv-x="1023" d="M578.711 353.033c-11.649 0-23.313-10.832-23.313-24.145 0-10.832 11.664-21.649 23.313-21.649 17.503 0 29.984 10.832 29.984 21.649 0 13.328-12.496 24.145-29.984 24.145zM502.13 465.481c18.321 0 29.984 11.664 29.984 29.152 0 18.321-11.664 29.152-29.984 29.152-17.488 0-34.145-10.832-34.145-29.152 0-17.503 16.656-29.152 34.145-29.152zM511.24 863.857c-282.355 0-511.24-228.885-511.24-511.24s228.885-511.24 511.24-511.24 511.24 228.885 511.24 511.24-228.885 511.24-511.24 511.24zM414.616 223.096c-30.816 0-53.312 4.993-82.464 13.328l-84.128-42.48 24.16 71.632c-59.137 41.605-94.128 94.113-94.128 158.257 0 113.338 106.624 199.905 236.56 199.905 114.945 0 217.408-68.304 237.393-164.985-6.72 1.49-14.473 2.394-22.419 2.496l-0.076 0.001c-113.338 0-200.737-84.96-200.737-187.409 0.119-17.818 2.541-35.020 6.982-51.39l-0.325 1.407c-5.213-0.551-11.262-0.866-17.385-0.866-1.212 0-2.421 0.012-3.626 0.037l0.18-0.003zM761.96 141.464l16.656-59.983-63.311 35.866c-24.16-4.993-47.473-12.496-71.632-12.496-111.616 0-199.905 76.625-199.905 171.585s88.303 171.513 199.919 171.513c105.777 0 200.737-76.625 200.737-171.585 0-53.312-35.866-100.785-82.464-134.929zM337.144 523.786c-17.488 0-35.866-10.832-35.866-29.152 0-17.503 18.321-29.152 35.866-29.152 16.656 0 29.984 11.664 29.984 29.152 0 18.321-13.328 29.152-29.984 29.152zM709.495 353.033c-12.496 0-23.328-10.832-23.328-24.145 0-10.832 10.832-21.649 23.328-21.649 16.656 0 29.152 10.832 29.152 21.649 0 13.328-12.496 24.145-29.152 24.145z" />
<glyph unicode="&#xe93b;" glyph-name="weixin2, cccccc3" d="M511.995-145.671c-67.172 0-132.349 13.16-193.721 39.121-59.262 25.067-112.486 60.948-158.182 106.645-45.697 45.693-81.578 98.916-106.646 158.182-25.961 61.371-39.117 126.544-39.117 193.727 0 67.172 13.156 132.349 39.117 193.721 25.068 59.262 60.949 112.486 106.646 158.182s98.92 81.578 158.182 106.646c61.371 25.96 126.549 39.117 193.721 39.117s132.359-13.157 193.722-39.117c59.271-25.068 112.489-60.954 158.186-106.646 45.698-45.697 81.574-98.92 106.646-158.182 25.956-61.371 39.121-126.549 39.121-193.73 0-67.173-13.165-132.35-39.121-193.722-25.072-59.266-60.948-112.484-106.646-158.178-45.697-45.697-98.915-81.583-158.176-106.645-61.376-25.956-126.558-39.121-193.732-39.121v0 0zM511.995 815.585c-62.583 0-123.294-12.258-180.441-36.427-55.205-23.347-104.779-56.773-147.36-99.352-42.581-42.576-76.005-92.155-99.352-147.36-24.169-57.147-36.429-117.858-36.429-180.441 0-62.588 12.259-123.304 36.429-180.447 23.347-55.2 56.776-104.778 99.352-147.354 42.581-42.581 92.155-76.010 147.36-99.358 57.147-24.174 117.858-36.427 180.441-36.427 62.593 0 123.304 12.253 180.447 36.427 55.199 23.352 104.778 56.777 147.354 99.358 42.585 42.576 76.010 92.149 99.358 147.354 24.174 57.144 36.427 117.854 36.427 180.447 0 62.588-12.253 123.299-36.427 180.441-23.353 55.205-56.773 104.784-99.358 147.36-42.576 42.579-92.155 76.010-147.354 99.352-57.144 24.169-117.854 36.427-180.447 36.427v0 0zM638.859 467.41c8.25 0 16.363-0.626 24.522-1.52-21.967 102.292-131.297 178.276-256.145 178.276-139.549 0-253.86-95.077-253.86-215.888 0-69.71 38.013-126.952 101.581-171.421l-25.375-76.344 88.76 44.472c31.738-6.234 57.198-12.687 88.894-12.687 7.979 0 15.867 0.355 23.667 0.939-4.93 16.991-7.842 34.743-7.842 53.257 0.041 110.903 95.257 200.916 215.797 200.916v0 0zM502.406 536.221c19.189 0 31.783-12.596 31.783-31.692 0-19.010-12.595-31.738-31.783-31.738-18.964 0-38.060 12.729-38.060 31.738 0 19.142 19.050 31.692 38.060 31.692v0 0zM324.751 472.791c-19.050 0-38.238 12.729-38.238 31.738 0 19.096 19.189 31.692 38.238 31.692 19.051 0 31.697-12.551 31.697-31.692 0-19.010-12.646-31.738-31.697-31.738v0 0zM870.618 269.54c0 101.49-101.578 184.199-215.668 184.199-120.808 0-215.888-82.753-215.888-184.199 0-101.758 95.126-184.197 215.888-184.197 25.283 0 50.794 6.322 76.164 12.689l69.618-38.193-19.096 63.472c50.968 38.285 88.982 88.987 88.982 146.23v0 0zM584.932 301.324c-12.596 0-25.372 12.55-25.372 25.371 0 12.642 12.775 25.372 25.372 25.372 19.276 0 31.783-12.729 31.783-25.372 0-12.821-12.507-25.371-31.783-25.371v0 0zM724.573 301.324c-12.507 0-25.238 12.55-25.238 25.371 0 12.642 12.684 25.372 25.238 25.372 19.097 0 31.78-12.729 31.78-25.372 0-12.821-12.684-25.371-31.78-25.371v0 0z" />
<glyph unicode="&#xe93d;" glyph-name="shouye_xiala, ffffff11" horiz-adv-x="1070" d="M504.623 791.127c7.517 7.607 17.949 12.318 29.482 12.318s21.966-4.711 29.478-12.314l0.004-0.004 454.926-457.541c5.487-5.516 13.084-8.93 21.477-8.93 16.73 0 30.292 13.562 30.292 30.292 0 8.336-3.367 15.886-8.816 21.363l-454.912 457.476c-18.498 18.672-44.146 30.232-72.495 30.232s-53.996-11.561-72.487-30.224l-452.806-457.549c-5.417-5.471-8.764-13-8.764-21.311 0-16.73 13.562-30.292 30.292-30.292 8.419 0 16.036 3.435 21.526 8.979l0.002 0.002zM889.496 34.648c0-39.904-9.268-73.142-27.906-92.754-26.739-28.098-50.069-41.314-74.026-41.314h-504.841c-27.431 0-62.733 16.818-86.076 41.339-23.599 24.791-39.904 62.733-39.904 92.728v409.549c0 16.729-13.561 30.29-30.29 30.29s-30.29-13.561-30.29-30.29v0-409.549c0-46.146 22.65-98.702 56.581-134.478 34.251-35.994 85.025-60.17 129.979-60.17h504.841c43.48 0 80.833 21.163 117.93 60.157 31.29 32.943 44.57 80.525 44.57 134.491v438.749c0 16.729-13.561 30.29-30.29 30.29s-30.29-13.561-30.29-30.29v0zM390.898-99.42l30.29-30.29v302.912c0 63.631 51.069 115.109 113.943 115.109s113.956-51.479 113.956-115.109v-302.912l30.29 30.29zM709.679-160v333.202c0 96.984-78.077 175.689-174.536 175.689s-174.536-78.705-174.536-175.689v-333.202z" />
<glyph unicode="&#xe93f;" glyph-name="write, 6664642" d="M140.22 863.441h325.694c0.176 0.002 0.383 0.004 0.59 0.004 25.287 0 45.785-20.499 45.785-45.785 0-0.208-0.001-0.415-0.004-0.622v0.031c0.002-0.176 0.004-0.383 0.004-0.59 0-25.287-20.499-45.785-45.785-45.785-0.208 0-0.415 0.001-0.622 0.004h-325.663c-0.171 0.002-0.374 0.004-0.576 0.004-25.294 0-45.799-20.505-45.799-45.799 0-0.203 0.001-0.405 0.004-0.607v0.031-744.678c-0.002-0.171-0.004-0.374-0.004-0.576 0-25.294 20.505-45.799 45.799-45.799 0.203 0 0.405 0.001 0.607 0.004h744.647c0.171-0.002 0.374-0.004 0.576-0.004 25.294 0 45.799 20.505 45.799 45.799 0 0.203-0.001 0.405-0.004 0.607v-0.031 325.694c0 25.61 20.761 46.372 46.372 46.372s46.372-20.761 46.372-46.372v0-325.694c0-38.543-13.407-71.495-40.78-98.881s-60.352-40.821-98.895-40.821h-744.678c-38.543 0-71.508 13.407-98.881 40.78s-40.78 60.393-40.78 98.936v744.078c0 38.543 13.407 71.508 40.78 98.881s60.897 40.821 99.44 40.821zM931.815 704.222l-385.978-385.978c-8.184-8.309-19.556-13.457-32.131-13.457-0.312 0-0.624 0.003-0.934 0.009l0.046-0.001q-20.104 0-33.51 13.407t-13.407 33.524c-0.005 0.256-0.008 0.558-0.008 0.861 0 12.555 5.131 23.911 13.41 32.086l385.983 385.983 91.68 93.344h20.663c0.171 0.002 0.374 0.004 0.576 0.004 25.294 0 45.799-20.505 45.799-45.799 0-0.203-0.001-0.405-0.004-0.607v0.031-19.544z" />
<glyph unicode="&#xe940;" d="M1024 352c0-282.77-229.23-512-512-512s-512 229.23-512 512c0 282.77 229.23 512 512 512s512-229.23 512-512z" />
<glyph unicode="&#xe941;" d="M512 656.64l106.667-189.867 213.333-42.667-147.627-160.427 25.6-216.32-197.973 91.307-197.973-91.307 25.6 216.32-147.627 160.427 213.333 42.667 106.667 189.867z" />
<glyph unicode="&#xe943;" horiz-adv-x="1595" d="M113.778 864h1367.524c62.838 0 113.778-50.94 113.778-113.778v-796.444c0-62.838-50.94-113.778-113.778-113.778h-1367.524c-62.838 0-113.778 50.94-113.778 113.778v796.444c0 62.838 50.94 113.778 113.778 113.778z" />
<glyph unicode="&#xe945;" glyph-name="yishouhuo, 5957576" d="M932.813 374.579c3.891 222.618-172.544 406.323-394.24 410.163s-404.48-173.517-408.269-396.186c-0.044-2.219-0.069-4.836-0.069-7.458 0-143.123 74.534-268.838 186.905-340.447l1.631-0.972c3.197-1.951 7.066-3.106 11.203-3.106 12.018 0 21.76 9.742 21.76 21.76 0 7.553-3.848 14.207-9.691 18.109l-0.079 0.050c-101.564 64.775-167.951 176.85-167.951 304.432 0 2.432 0.024 4.858 0.072 7.278l-0.006-0.362c3.482 198.656 166.451 356.915 363.981 353.28s354.918-167.27 351.437-365.926c-2.166-127.274-70.074-238.222-171.146-300.575l-1.552-0.891c-6.292-3.888-10.421-10.748-10.421-18.572 0-4.168 1.172-8.063 3.205-11.372l-0.054 0.095c3.886-6.304 10.753-10.444 18.586-10.444 4.184 0 8.092 1.181 11.409 3.227l-0.094-0.054c114.976 70.937 191.028 195.319 193.378 337.631l0.004 0.34zM525.363-76.544c3.59-2.714 8.129-4.348 13.050-4.348 5.41 0 10.36 1.975 14.166 5.242l-0.029-0.024 76.134 65.229c4.371 3.994 7.102 9.719 7.102 16.082 0 12.018-9.742 21.76-21.76 21.76-5.19 0-9.956-1.817-13.696-4.85l0.041 0.032-76.083-65.178 27.187 0.87-87.040 65.229c-3.591 2.717-8.133 4.352-13.056 4.352-12.018 0-21.76-9.742-21.76-21.76 0-7.094 3.395-13.396 8.649-17.368l0.055-0.040 87.040-65.229zM557.67 423.014h152.832c12.018 0 21.76 9.742 21.76 21.76s-9.742 21.76-21.76 21.76v0h-120.422l72.397 86.63c3.165 3.754 5.088 8.644 5.088 13.984 0 6.713-3.040 12.716-7.819 16.708l-0.035 0.028c-3.754 3.165-8.644 5.088-13.984 5.088-6.713 0-12.716-3.040-16.708-7.819l-0.028-0.035-95.59-114.586h8.858l-95.744 114.534c-4.009 4.564-9.857 7.43-16.375 7.43-12.018 0-21.76-9.742-21.76-21.76 0-5.153 1.791-9.888 4.786-13.616l-0.033 0.042 72.397-86.63h-120.474c-12.018 0-21.76-9.742-21.76-21.76s9.742-21.76 21.76-21.76v0h149.146v-103.27h-149.146c-12.018 0-21.76-9.742-21.76-21.76s9.742-21.76 21.76-21.76v0h149.146v-118.272c0-12.018 9.742-21.76 21.76-21.76s21.76 9.742 21.76 21.76v0 118.272h152.832c12.018 0 21.76 9.742 21.76 21.76s-9.742 21.76-21.76 21.76v0h-152.883z" />
<glyph unicode="&#xe947;" glyph-name="yue, eecf3d" d="M512 864c-282.775 0-512-229.225-512-511.987s229.225-512.013 512-512.013 512 229.225 512 512.013-229.225 511.987-512 511.987zM723.25 233.75c0-14.7-13.087-29.7-35.85-29.7l-125.375 0.387v-102.6c0-22.763-21.25-45.925-43.975-45.925s-43.963 23.15-43.963 45.925v102.588l-125.338-0.425c-22.75 0-35.938 9.087-35.938 44.362 0 14.65 6.55 29.313 29.313 29.313h131.9v73.325h-131.913c-22.75 0-29.313 17.063-29.313 29.313 0 22.788 6.55 43.963 29.313 43.963h102.6l-115.188 136.125c-6.427 7.253-10.352 16.852-10.352 27.367 0 22.837 18.513 41.35 41.35 41.35 12.777 0 24.201-5.795 31.786-14.9l0.054-0.067 125.725-146.525 125.737 146.575c7.641 9.285 19.133 15.16 31.998 15.16 22.837 0 41.35-18.513 41.35-41.35 0-10.606-3.993-20.279-10.557-27.598l0.034 0.039-115.4-136.162h102.6c22.763 0 29.313-18.113 29.313-29.313 0-22.75-6.55-43.975-29.313-43.975h-131.875v-73.25h131.913s29.313 2.212 29.313-43.975z" />
<glyph unicode="&#xe94a;" glyph-name="zhifubao" horiz-adv-x="1025" d="M190.862 170.48c0 69.815 51.206 107.046 88.437 111.755 111.755 18.622 265.311-74.461 265.311-74.461-69.815-88.437-167.569-134.985-242.031-134.985-65.157 4.646-111.755 41.877-111.755 97.741zM982.111 133.199c-13.988 4.709-330.417 102.45-321.163 111.755 46.548 55.852 79.107 186.178 79.107 186.178v27.939h-186.166v69.815h228.080v41.877h-228.080v102.375h-93.058v-97.754h-204.825v-41.889h204.825v-69.815h-162.936v-27.863h335.126c0-13.963-23.268-107.046-46.548-148.948-4.646 9.305-153.594 60.511-237.322 65.157-88.437-4.659-158.215-32.585-190.862-97.741-46.535-121.084 27.888-242.056 195.458-242.056 27.976 0 162.898 13.963 265.298 153.619 27.926-13.963 186.178-93.095 283.932-144.289-93.095-111.755-232.726-181.532-390.978-181.532-0.183 0-0.399 0-0.615 0-283.11 0-512.615 229.506-512.615 512.615s229.506 512.615 512.615 512.615c283.11 0 512.615-229.506 512.615-512.615 0-0.225 0-0.45 0-0.676v0.036c4.659-83.778-13.963-153.594-41.889-218.751z" />
<glyph unicode="&#xe94b;" horiz-adv-x="1595" d="M113.778 864h1367.524c62.838 0 113.778-50.94 113.778-113.778v-796.444c0-62.838-50.94-113.778-113.778-113.778h-1367.524c-62.838 0-113.778 50.94-113.778 113.778v796.444c0 62.838 50.94 113.778 113.778 113.778z" />
<glyph unicode="&#xe94c;" horiz-adv-x="1595" d="M467.57 393.415c0 34.133 20.167 71.396 102.798 76.8s194.105-58.482 194.105-58.482-82.489-100.267-179.456-100.267-117.447 47.644-117.447 81.948zM690.46 772.978v-81.579h-167.623v-35.84l167.623 1.223v-54.471h-134.457v-28.444h276.736c-3.176-19.49-7.885-36.808-14.162-53.354l0.623 1.87c-10.61-28.644-21.504-53.817-21.504-53.817s-129.963 45.511-198.514 45.511-151.723-27.477-159.801-107.236 38.713-123.108 104.704-139.036 126.891 0.171 179.968 26.112 105.102 84.935 105.102 84.935l275.058-133.689s17.294 26.169 29.781 50.432c7.019 13.494 14.677 30.621 21.467 48.18l1.289 3.788-287.687 96.711s17.579 26.34 36.352 78.023 21.504 80.1 21.504 80.1l-148.338 1.223v50.688l179.627 1.223v35.868h-179.74v81.579z" />
<glyph unicode="&#xe94d;" glyph-name="zidongtui, 3e3a3912" d="M512.007-160c-282.325 0-512.007 229.682-512.007 511.993s229.682 512.007 512.007 512.007 512.007-229.682 512.007-512.007-229.682-511.993-512.007-511.993zM512.007 805.273c-249.94 0.029-453.309-203.34-453.309-453.28s203.297-453.266 453.28-453.266 453.28 203.297 453.28 453.266-203.311 453.309-453.252 453.309zM428.426 152.576c-0.007 0-0.016 0-0.024 0-8.098 0-15.429 3.283-20.735 8.59l-170.011 170.068c-5.557 5.351-9.009 12.854-9.009 21.164 0 16.217 13.146 29.363 29.363 29.363 8.31 0 15.814-3.452 21.155-9l149.26-149.289 312.103 312.018c5.351 5.557 12.854 9.009 21.164 9.009 16.217 0 29.363-13.146 29.363-29.363 0-8.31-3.452-15.814-9-21.155l-332.872-332.8c-5.315-5.308-12.653-8.59-20.759-8.59 0 0 0 0-0.001 0v0z" />
<glyph unicode="&#xe94f;" glyph-name="daichuli, 44a9f4" d="M690.313 146.125l-15.088-15.075c-5.793-5.79-13.794-9.371-22.631-9.371s-16.839 3.581-22.631 9.371l-156.987 156.987c-13.766 3.726-23.73 16.097-23.75 30.798v320.002c0 17.666 14.321 31.988 31.987 31.988v0h21.288c17.666 0 31.987-14.321 31.987-31.987v0-291.688l155.825-155.763c5.79-5.793 9.371-13.794 9.371-22.631s-3.581-16.839-9.371-22.631v0zM512 864c-282.75 0-512-229.225-512-512s229.225-512 512-512 512 229.225 512 512-229.25 512-512 512z" />
<glyph unicode="&#xe953;" glyph-name="fenlei-2" horiz-adv-x="1195" d="M1112.915-16.979h0.106v0.634zM343.335 854.14h-269.738c-40.62-0.050-73.537-32.961-73.597-73.573v-269.832c0.050-40.623 32.973-73.539 73.593-73.579h269.742c40.621 0.040 73.539 32.959 73.579 73.575v269.83c-0.060 40.613-32.967 73.519-73.573 73.579h-0.006zM346.856 780.561v-269.826c0-0.001 0-0.001 0-0.002 0-1.901-1.507-3.451-3.392-3.519h-269.867c-1.945 0-3.521 1.577-3.521 3.521v0 269.826c0 1.945 1.577 3.521 3.521 3.521v0h269.738c0.001 0 0.001 0 0.002 0 1.877 0 3.398-1.521 3.398-3.398 0-0.043-0.001-0.086-0.002-0.129v0.006zM340.799 249.184h-264.667c-39.836-0.080-72.108-32.352-72.188-72.181v-264.798c0.050-39.848 32.34-72.138 72.183-72.188h264.76c39.848 0.050 72.138 32.34 72.188 72.183v264.795c-0.090 39.832-32.356 72.098-72.18 72.188h-0.009zM344.233 176.996v-264.79c0-0.005 0-0.011 0-0.018 0-1.851-1.496-3.353-3.344-3.363h-264.756c-1.851 0.056-3.34 1.532-3.416 3.374v264.797c0.020 1.871 1.541 3.381 3.416 3.381 0 0 0 0 0 0h264.755c0 0 0 0 0 0 1.848 0 3.345-1.498 3.345-3.345 0-0.012 0-0.025 0-0.037v0.002zM660.981 780.121c1.198-0.829 2.677-1.333 4.273-1.356h3.017c0.349-0.049 0.752-0.077 1.162-0.077s0.813 0.028 1.208 0.082l-0.046-0.005h477.024c0.346-0.048 0.755-0.080 1.169-0.088h0.011c0.005 0 0.011 0 0.017 0 0.392 0 0.776 0.032 1.151 0.094l-0.041-0.006h2.465c1.309 0.037 2.52 0.425 3.551 1.074l-0.029-0.017c20.121 3.377 35.285 20.591 35.443 41.377v0.017c-0.118 20.448-14.779 37.438-34.157 41.158l-0.264 0.042c-1.244 0.968-2.822 1.56-4.537 1.585h-487.136c-1.643-0.087-3.118-0.74-4.249-1.766l0.006 0.005c-19.473-3.876-33.982-20.723-34.21-41v-0.025c0.186-20.311 14.673-37.184 33.869-41.049l0.27-0.045zM660.382 464.323c1.281-1.178 2.993-1.905 4.874-1.919h487.133c1.582 0.075 3.015 0.66 4.15 1.594l-0.012-0.010c19.864 3.535 34.751 20.674 34.751 41.289 0 20.76-15.096 37.994-34.91 41.323l-0.246 0.034c-1.064 0.631-2.346 1.004-3.715 1.004-0.012 0-0.025 0-0.037 0h0.002l-1.18-0.194c-0.762 0.172-1.636 0.271-2.534 0.271-0.478 0-0.95-0.028-1.414-0.082l0.056 0.005-475.51-0.194c-0.764 0.171-1.641 0.269-2.542 0.269-0.475 0-0.944-0.027-1.406-0.080l0.056 0.005h-2.659c-0.019 0-0.042 0-0.065 0-1.385 0-2.665-0.449-3.703-1.21l0.018 0.012c-19.798-3.531-34.633-20.616-34.633-41.165 0-20.146 14.259-36.962 33.235-40.906l0.271-0.047zM660.365 144.265c1.268-1.094 2.932-1.761 4.751-1.761 0.026 0 0.051 0 0.077 0h487.197c0.005 0 0.010 0 0.015 0 0.716 0 1.407 0.103 2.061 0.295l-0.052-0.013c22.564 1.159 40.421 19.737 40.421 42.486 0 23.461-18.992 42.486-42.441 42.538h-0.005c-0.434-0.016-0.841-0.054-1.241-0.113l0.061 0.007h-480.669c-0.346 0.049-0.747 0.078-1.153 0.078s-0.807-0.028-1.198-0.083l0.045 0.005h-2.958c-1.44-0.003-2.772-0.465-3.858-1.246l0.020 0.013c-19.734-3.604-34.496-20.663-34.496-41.171 0-20.155 14.259-36.979 33.239-40.936l0.272-0.047zM1155.207-53.918c-0.817 0.342-1.767 0.542-2.763 0.546h-487.184c-1.72-0.059-3.261-0.782-4.383-1.918l-0.001-0.001c-19.493-3.807-34.002-20.749-34.002-41.080 0-20.526 14.789-37.597 34.292-41.141l0.255-0.038c1.068-0.653 2.359-1.039 3.742-1.039 0.034 0 0.068 0 0.102 0.001h-0.005l1.232 0.194c0.853-0.18 1.832-0.283 2.836-0.283 0.564 0 1.121 0.033 1.668 0.096l-0.067-0.006 478.503 0.194c0.854-0.23 1.862-0.405 2.896-0.489l0.062-0.004c23.397 0.127 42.315 19.123 42.315 42.538 0 22.442-17.379 40.825-39.412 42.425l-0.138 0.008z" />
<glyph unicode="&#xe955;" glyph-name="gouwuche-2" horiz-adv-x="1177" d="M1157.384 710.596c-20.644 28.573-55.557 45.825-93.149 45.825h-677.279c-14.538 0-26.323-11.785-26.323-26.323s11.785-26.323 26.323-26.323h677.154c20.769 0 39.574-8.929 50.396-23.895 10.251-14.287 12.251-31.877 5.697-51.236l-81.024-242.874c-5.84-16.501-27.502-70.576-63.379-70.576h-676.44l-65.933 493.731c-4.402 31.264-30.966 55.056-63.092 55.075h-143.994c-14.538 0-26.323-11.785-26.323-26.323s11.785-26.323 26.323-26.323v0h143.992c5.48-0.056 10-4.090 10.814-9.349l0.008-0.062 84.167-630.401c8.929-53.664 45.128-88.238 92.274-88.238h662.546c14.538 0 26.323 11.785 26.323 26.323s-11.785 26.323-26.323 26.323h-662.546c-30.484 0-38.61 33.931-40.146 43.414l-11.126 83.113h669.493c48.414 0 89.578 38.556 113.347 106.293l81.184 243.196c11.822 35.431 7.268 70.451-12.947 98.614zM462.693 48.050c-57.421-0.041-103.954-46.599-103.954-104.025 0-57.451 46.574-104.025 104.025-104.025s104.025 46.574 104.025 104.025c0 0.006 0 0.013 0 0.019v-0.001c-0.091 57.436-46.653 103.967-104.093 104.007h-0.004zM462.693-107.193c-28.36 0.020-51.343 23.016-51.343 51.379 0 28.376 23.003 51.379 51.379 51.379s51.379-23.003 51.379-51.379v0c-0.041-28.372-23.040-51.358-51.412-51.379h-0.002zM914.867 48.050c-57.421-0.041-103.954-46.599-103.954-104.025 0-57.451 46.574-104.025 104.025-104.025s104.025 46.574 104.025 104.025c0 0.006 0 0.013 0 0.019v-0.001c-0.091 57.436-46.653 103.967-104.093 104.007h-0.004zM914.867-107.193c-28.368 0.010-51.361 23.009-51.361 51.379 0 28.376 23.003 51.379 51.379 51.379s51.379-23.003 51.379-51.379v0c-0.041-28.366-23.030-51.348-51.394-51.379h-0.003z" />
<glyph unicode="&#xe959;" glyph-name="jintuikuan" d="M917.691 457.102c-8.010 6.448-19.732 5.174-26.159-2.897l-31.895-39.965c-1.045 15.446-3.089 31.007-6.332 46.606-39.791 192.336-226.935 315.744-417.975 275.701-191.060-40.080-313.68-228.438-273.888-420.734 39.792-192.336 226.931-315.744 417.993-275.663 69.446 14.559 129.143 49.27 175.864 96.187 0.173 0.153 0.35 0.308 0.523 0.501 0.832 0.849 1.118 1.814 1.949 2.703 1.37 2.319 2.354 5.058 2.354 7.952 0 8.494-6.872 15.408-15.328 15.408-4.556 0-8.533-2.084-11.353-5.251l-0.115 0.076c-42.417-42.513-96.844-73.868-159.862-87.073-173.007-36.296-342.483 75.489-378.51 249.637-36.046 174.148 75.006 344.744 248.017 381.041 173.006 36.258 342.484-75.529 378.512-249.678 2.778-13.398 4.672-26.721 5.79-40.004l-38.651 31.238c-8.033 6.449-19.732 5.174-26.159-2.896-6.452-8.071-5.155-19.847 2.857-26.334 0.038-0.039 0.038-0.039 0.077-0.039l71.223-57.574c0.020 0 0.058-0.038 0.075-0.038 4.058-3.282 9.076-4.557 13.863-3.978 4.826 0.501 9.444 2.778 12.705 6.873 0.020 0.038 0.039 0.078 0.039 0.078l57.186 71.743c0.020 0 0.020 0 0.056 0.039 6.43 8.076 5.155 19.852-2.857 26.341zM626.429 369.408v0.155c8.881 0 16.102 7.221 16.102 16.141s-7.221 16.141-16.102 16.141h-97.017v29.693l96.167 94.332-0.096 0.116c6.662 5.908 7.259 16.102 1.352 22.783-5.928 6.68-16.122 7.259-22.784 1.351l-90.452-89.159-95.144 93.444c-6.68 5.91-16.875 5.29-22.784-1.39-5.906-6.642-5.308-16.836 1.352-22.744l-0.096-0.117 100.049-97.848v-30.465l-97.018-0.079c-8.88 0-16.102-7.22-16.102-16.141 0-8.919 7.222-16.141 16.102-16.141v-0.078h97.018v-49.849l-97.018-0.076c-8.88 0-16.121-7.259-16.121-16.141 0-8.92 7.239-16.139 16.121-16.139v-0.078h97.018v-95.801h0.077c0-8.88 7.239-16.103 16.141-16.103 8.9 0 16.122 7.224 16.122 16.103h0.095v95.801h96.998v0.153c8.901 0 16.121 7.259 16.121 16.141 0 8.918-7.221 16.139-16.121 16.139h-96.998v49.849l97.017 0.004z" />
<glyph unicode="&#xe95b;" glyph-name="shouye-2" horiz-adv-x="1070" d="M504.623 791.127c7.517 7.607 17.949 12.318 29.482 12.318s21.966-4.711 29.478-12.314l0.004-0.004 454.926-457.541c5.487-5.516 13.084-8.93 21.477-8.93 16.73 0 30.292 13.562 30.292 30.292 0 8.336-3.367 15.886-8.816 21.363l-454.912 457.476c-18.498 18.672-44.146 30.232-72.495 30.232s-53.996-11.561-72.487-30.224l-452.806-457.549c-5.417-5.471-8.764-13-8.764-21.311 0-16.73 13.562-30.292 30.292-30.292 8.419 0 16.036 3.435 21.526 8.979l0.002 0.002zM889.496 34.648c0-39.904-9.268-73.142-27.906-92.754-26.739-28.098-50.069-41.314-74.026-41.314h-504.841c-27.431 0-62.733 16.818-86.076 41.339-23.599 24.791-39.904 62.733-39.904 92.728v409.549c0 16.729-13.561 30.29-30.29 30.29s-30.29-13.561-30.29-30.29v0-409.549c0-46.146 22.65-98.702 56.581-134.478 34.251-35.994 85.025-60.17 129.979-60.17h504.841c43.48 0 80.833 21.163 117.93 60.157 31.29 32.943 44.57 80.525 44.57 134.491v438.749c0 16.729-13.561 30.29-30.29 30.29s-30.29-13.561-30.29-30.29v0zM390.898-99.42l30.29-30.29v302.912c0 63.631 51.069 115.109 113.943 115.109s113.956-51.479 113.956-115.109v-302.912l30.29 30.29zM709.679-160v333.202c0 96.984-78.077 175.689-174.536 175.689s-174.536-78.705-174.536-175.689v-333.202z" />
<glyph unicode="&#xe95c;" glyph-name="tuihuotuikuan" d="M512.585-160c-211.445 0-393.32 128.075-471.636 310.393v-99.133h-40.95v307.408h40.893c0-266.502 211.588-473.478 471.636-473.478 230.649 0 426.174 163.213 464.896 391.021l40.364-7.924c-42.078-247.54-254.565-428.344-505.246-428.344zM1023.929 358.682h-41.407c0.057 245.456-210.803 468.095-469.937 468.095-229.878 0-424.789-166.298-463.383-392.549l-40.364 5.883c41.978 245.927 254.022 423.89 503.933 423.89 210.645 0 391.935-129.246 470.251-312.506v113.426h40.907zM627.496 86.983q-30.098 0-106.244 1.228-57.727 1.228-93.964 11.051-35.010 11.051-63.252 44.833-11.68 15.349-22.731 15.349-22.103 0-73.076-84.755l-33.168 30.098q49.131 77.373 86.583 93.95v186.715h-87.182v40.536h128.361v-230.306c5.118-4.267 9.729-8.684 14.021-13.396l0.1-0.111q22.103-26.4 46.061-38.694 27.628-12.85 80.443-14.735 63.88-1.228 117.923-1.228 30.070 0 93.964 1.228 54.043 1.228 73.704 2.456l-11.051-44.262zM278.667 629.267q63.252-49.731 105.030-96.42l-31.94-31.94q-36.852 46.118-103.174 99.504zM485.7 386.682v-166.426c49.812 9.102 91.144 19.11 131.616 31.117l-8.824-2.246 9.823-39.979q-72.476-20.261-182.403-38.679l-9.823 37.466q16.534 5.568 16.534 18.462v389.365h294.815v-229.064zM694.503 519.34v57.113h-208.861v-57.113zM485.643 482.488v-56.499h208.804v56.499zM567.942 365.193q55.271-32.554 93.964-60.182 37.452 33.168 62.024 63.252l31.94-25.172q-32.54-37.452-61.396-62.024 50.345-39.308 85.355-74.246l-27.628-32.554q-81.128 85.283-209.446 160.843z" />
<glyph unicode="&#xe95e;" glyph-name="wode-2" horiz-adv-x="899" d="M767.729 183.001c-4.519 4.515-10.76 7.308-17.653 7.308-13.793 0-24.975-11.182-24.975-24.975 0-6.9 2.798-13.146 7.322-17.667v0c72.328-71.954 117.090-171.558 117.090-281.617 0-0.379-0.001-0.758-0.002-1.137v0.059c0-13.799 11.186-24.986 24.986-24.986s24.986 11.186 24.986 24.986v0c0.001 0.341 0.001 0.744 0.001 1.147 0 123.824-50.369 235.883-131.735 316.807l-0.020 0.020zM449.755 864c-165.36 0-299.841-134.522-299.841-299.841 0-117.87 68.419-220.129 167.649-269.072-185.353-58.548-317.41-228.889-317.563-430.096v-0.019c0-13.799 11.186-24.986 24.986-24.986s24.986 11.186 24.986 24.986v0c0 0.008 0 0.017 0 0.026 0 216.75 172.515 393.206 387.727 399.552l0.585 0.014c3.81-0.137 7.62-0.233 11.458-0.233 165.333 0 299.828 134.495 299.828 299.828s-134.495 299.841-299.814 299.841zM453.867 314.398c-1.263 0.232-2.718 0.366-4.204 0.37h-0.004q-5.715 0-11.403-0.151c-132.466 6.003-238.481 115.663-238.481 249.582 0 137.784 112.1 249.856 249.87 249.856s249.856-112.072 249.856-249.856c0-136.359-109.838-247.554-245.69-249.802z" />
<glyph unicode="&#xe95f;" glyph-name="yiguanbi, 403c3b" d="M511.993 864.041c-282.774 0-512.007-229.233-512.007-512.007s229.233-512.007 512.007-512.007c282.764 0 511.991 229.217 512.007 511.978v0.002c0.001 0.446 0.002 0.974 0.002 1.502 0 281.96-228.574 510.534-510.534 510.534-0.518 0-1.037-0.001-1.555-0.002h0.080zM709.83 226.334c13.964-13.964 13.964-34.909 0-48.873s-34.909-13.964-48.873 0l-137.319 137.305-137.305-137.305c-13.964-13.964-34.909-13.964-48.873 0s-13.964 34.909 0 48.873l137.305 137.251-137.319 137.319c-13.964 13.964-13.964 34.909 0 48.873s34.909 13.964 48.873 0l137.319-137.264 137.305 137.319c13.964 13.964 34.909 13.964 48.873 0s13.964-34.909 0-48.873l-137.305-137.373z" />
<glyph unicode="&#xe960;" glyph-name="yijujue, ff36494" d="M512 864c-282.77 0-512-229.23-512-512s229.23-512 512-512 512 229.23 512 512-229.23 512-512 512zM746.325 305.129h-468.679c-25.882 0-46.864 20.982-46.864 46.864s20.982 46.864 46.864 46.864h468.679c25.882 0 46.864-20.982 46.864-46.864s-20.982-46.864-46.864-46.864v0z" />
<glyph unicode="&#xe961;" glyph-name="yiquxiao, 403c3b2" d="M512.007 864c-282.779 0-512.007-229.285-512.007-512.007s229.228-511.993 512.007-511.993 511.993 229.228 511.993 511.993-229.228 512.007-511.993 512.007zM460.799 573.285c0.483 27.91 23.221 50.35 51.201 50.35s50.718-22.44 51.2-50.305l0.001-0.045v-307.204c-0.483-27.91-23.221-50.35-51.201-50.35s-50.718 22.44-51.2 50.305l-0.001 0.045zM512.007 59.222c-0.004 0-0.009 0-0.014 0-28.281 0-51.208 22.927-51.208 51.208s22.927 51.208 51.208 51.208c28.281 0 51.208-22.927 51.208-51.208 0-0.005 0-0.010 0-0.015v0.001c-0.008-28.27-22.923-51.185-51.193-51.194h-0.001z" />
<glyph unicode="&#xe962;" glyph-name="yituikuan, 29be58" d="M512 864c-282.761 0-512-229.239-512-512s229.239-512 512-512 512 229.239 512 512-229.239 512-512 512zM474.965 78.933c-78.677 99.738-171.247 175.718-236.032 199.475l152.747 94.993 74.035-147.251c0 0 120.354 299.213 310.101 398.95-4.608-71.236-23.142-132.949 9.25-208.964-83.319-19.012-254.566-232.721-310.101-337.203z" />
<glyph unicode="&#xe963;" glyph-name="xiangji" horiz-adv-x="1191" d="M1038.755 648.901h-150.333l-64.583 155.479c-14.821 35.186-49.019 59.437-88.882 59.437-0.064 0-0.128 0-0.192 0h-279.255c-0.074 0-0.161 0-0.249 0-39.862 0-74.060-24.252-88.645-58.805l-0.237-0.632-64.583-155.479h-150.249c-83.66-0.095-151.454-67.889-151.548-151.539v-504.215c0.095-83.66 67.889-151.454 151.539-151.548h887.216c83.66 0.095 151.454 67.889 151.548 151.539v504.232c-0.095 83.66-67.889 151.454-151.539 151.548h-0.009zM1135.196-6.87c-0.085-53.229-43.212-96.356-96.433-96.441h-887.215c-53.229 0.085-96.356 43.212-96.441 96.433v504.247c0.095 53.222 43.218 96.34 96.433 96.425h168.726c11.423 0.012 21.217 6.976 25.379 16.889l0.068 0.181 71.611 172.449c6.35 15.083 21.008 25.48 38.095 25.48 0.026 0 0.053 0 0.079 0h279.278c0.026 0 0.056 0 0.086 0 17.084 0 31.739-10.397 37.983-25.209l0.101-0.271 71.611-172.449c4.254-10.058 14.038-16.987 25.441-16.987 0.002 0 0.004 0 0.006 0h168.751c53.229-0.085 96.356-43.212 96.441-96.433v-504.297zM595.152 567.565c-154.346 0-279.898-125.519-279.898-279.781s125.552-279.898 279.898-279.898 279.898 125.485 279.898 279.898-125.635 279.781-279.898 279.781zM595.152 62.876c-123.953 0-224.824 100.838-224.824 224.824s100.838 224.824 224.824 224.824 224.824-100.838 224.824-224.824-100.838-224.824-224.824-224.824zM518.778 174.405c-36.556 24.881-60.251 66.295-60.253 113.245v0c0 15.217-12.336 27.553-27.553 27.553s-27.553-12.336-27.553-27.553v0c0.001-65.878 33.244-123.992 83.87-158.482l0.664-0.427c4.324-2.956 9.667-4.72 15.421-4.72 15.217 0 27.552 12.336 27.552 27.552 0 9.462-4.77 17.81-12.036 22.771l-0.095 0.061zM262.328 525.931h-115.776c-15.217 0-27.553-12.336-27.553-27.553s12.336-27.553 27.553-27.553v0h115.726c15.217 0 27.553 12.336 27.553 27.553s-12.336 27.553-27.553 27.553v0z" />
<glyph unicode="&#xe964;" glyph-name="weixuanzhong2" horiz-adv-x="1059" d="M866.687-160c-4.916 0.007-9.544 1.236-13.598 3.4l0.156-0.076-303.371 158.155-288.039-157.269c-4.268-2.616-9.435-4.165-14.964-4.165-15.998 0-28.966 12.969-28.966 28.966 0 11.345 6.523 21.168 16.023 25.921l0.167 0.076 301.599 164.729c4.006 2.214 8.783 3.517 13.864 3.517 4.904 0 9.524-1.214 13.577-3.357l-0.158 0.076 262.293-136.767-62.379 289.191c-0.411 1.831-0.646 3.934-0.646 6.092 0 7.826 3.096 14.929 8.129 20.151l-0.009-0.009 199.544 206.635-292.47 43.117c-9.276 1.428-16.992 7.068-21.239 14.87l-0.076 0.153-141.479 265.468-115.821-263.179c-4.021-9.007-12.266-15.488-22.146-16.967l-0.159-0.020-284.39-41.935 218.496-206.797c5.605-5.299 9.094-12.786 9.094-21.087 0-1.288-0.084-2.557-0.247-3.801l0.016 0.146-24.373-188.038c-1.564-14.652-13.86-25.965-28.797-25.965-15.99 0-28.952 12.962-28.952 28.952 0 1.511 0.116 2.994 0.339 4.442l-0.020-0.162 22.452 173.621-251.066 237.58c-5.6 5.291-9.086 12.769-9.086 21.061 0 14.505 10.667 26.518 24.584 28.624l0.16 0.020 327.581 48.272 133.369 303.105c2.016 4.58 5.035 8.395 8.796 11.295l0.067 0.049c4.82 3.689 10.933 5.911 17.565 5.911 11.022 0 20.611-6.138 25.535-15.182l0.076-0.152 162.69-305.203 333.711-49.188c14.022-2.215 24.617-14.214 24.617-28.689 0-7.785-3.065-14.854-8.054-20.067l0.010 0.011-227.935-236.029 72.128-334.391c0.431-1.869 0.678-4.015 0.678-6.219 0-15.949-12.929-28.878-28.878-28.878-0.005 0-0.009 0-0.014 0h0.001z" />
<glyph unicode="&#xe965;" glyph-name="xuanzhong2" horiz-adv-x="1072" d="M1069.401 476.538c-5.943 17.98-21.358 31.245-40.186 33.986l-0.269 0.032-309.692 45.087-138.596 280.633c-8.366 16.568-25.253 27.731-44.746 27.731s-36.38-11.163-44.615-27.445l-0.131-0.286-138.544-280.62-309.823-45.087c-19.070-2.797-34.456-16.055-40.289-33.666l-0.101-0.352c-1.524-4.594-2.404-9.883-2.404-15.377 0-14.035 5.739-26.73 14.998-35.867l0.006-0.006 224.282-218.499-52.728-308.384c-0.467-2.563-0.733-5.512-0.733-8.523 0-27.56 22.342-49.901 49.901-49.901 8.535 0 16.57 2.143 23.595 5.92l-0.266-0.131 277.048 145.701 277.062-145.701c6.702-3.544 14.648-5.624 23.081-5.624 27.712 0 50.176 22.465 50.176 50.176 0 2.855-0.238 5.653-0.696 8.378l0.041-0.294-52.858 308.423 224.256 218.459c9.092 9.151 14.711 21.761 14.711 35.684 0 5.563-0.897 10.916-2.554 15.923l0.103-0.358z" />
<glyph unicode="&#xe966;" glyph-name="toupiao_fenlei" horiz-adv-x="1036" d="M783.405-160c-0.030 0-0.067 0-0.103 0-121.471 0-219.943 98.472-219.943 219.943s98.472 219.943 219.943 219.943c121.471 0 219.943-98.472 219.943-219.943 0-46.105-14.186-88.896-38.431-124.248l0.485 0.749-5.17-7.604 70.501-47.143c3.494-2.347 5.763-6.285 5.763-10.752 0-7.131-5.78-12.911-12.911-12.911-0.010 0-0.021 0-0.031 0h0.002c-2.672 0.004-5.153 0.822-7.207 2.219l0.045-0.029-72.919 48.755-5.292-5.262c-39.471-39.373-93.948-63.719-154.111-63.719-0.198 0-0.396 0-0.594 0.001h0.031zM783.405 253.639c-106.993-0.054-193.707-86.802-193.707-193.802 0-107.034 86.768-193.802 193.802-193.802s193.802 86.768 193.802 193.802c0 53.529-21.702 101.99-56.787 137.063l-0.001 0.001c-34.91 35.095-83.236 56.815-136.636 56.815-0.166 0-0.333 0-0.499-0.001h0.026zM82.272-158.251c-0.010 0-0.022 0-0.033 0-22.693 0-43.224 9.258-58.022 24.203l-0.007 0.007c-14.95 14.76-24.21 35.252-24.21 57.908 0 0.054 0 0.108 0 0.162v-0.008 271.618c0 0.008 0 0.017 0 0.026 0 22.643 9.215 43.133 24.099 57.925l0.156 0.156c14.795 14.925 35.304 24.164 57.97 24.164 0.016 0 0.032 0 0.048 0h271.6c45.344-0.223 82.042-36.926 82.256-82.251v-271.639c-0.129-45.38-36.878-82.134-82.243-82.272h-0.013zM42.428 235.405c-10.156-10.196-16.443-24.253-16.47-39.777v-271.608c0.138-31.020 25.247-56.13 56.254-56.267h271.661c31.055 0.052 56.215 25.213 56.267 56.262v271.623c-0.138 31.020-25.247 56.13-56.254 56.267h-271.616c-0.059 0-0.128 0-0.197 0-15.424 0-29.388-6.253-39.493-16.363v0zM647.68 427.854c-45.38 0.129-82.134 36.878-82.272 82.243v271.616c0.121 45.365 36.838 82.114 82.179 82.287h271.619c45.356-0.215 82.065-36.93 82.272-82.267v-271.623c-0.223-45.344-36.926-82.042-82.251-82.256h-0.021zM647.68 838.056c-31.055-0.052-56.215-25.213-56.267-56.262v-271.608c0-0.059 0-0.129 0-0.199 0-15.467 6.297-29.463 16.467-39.565l0.003-0.003c10.196-10.213 24.288-16.535 39.856-16.546h271.605c31.023 0.129 56.138 25.244 56.267 56.255v271.584c-0.138 31.020-25.247 56.13-56.254 56.267h-0.013zM82.272 427.854c-45.38 0.129-82.134 36.878-82.272 82.243v271.616c0.121 45.392 36.881 82.157 82.259 82.287h271.616c45.356-0.215 82.065-36.93 82.272-82.267v-271.623c0-0.016 0-0.035 0-0.053 0-22.601-9.185-43.057-24.025-57.838l-0.201-0.201c-14.79-14.924-35.295-24.164-57.958-24.164-0.031 0-0.062 0-0.093 0h0.005zM82.272 838.056c-31.051-0.060-56.207-25.216-56.267-56.261v-271.609c-0.001-0.095-0.001-0.207-0.001-0.32 0-15.445 6.279-29.423 16.423-39.521l0.002-0.002c10.192-10.211 24.278-16.532 39.841-16.546h271.605c0.048 0 0.105 0 0.161 0 15.479 0 29.487 6.296 39.603 16.467l0.169 0.169c10.119 10.098 16.379 24.060 16.379 39.484 0 0.068 0 0.135 0 0.203v-0.010 271.603c-0.138 31.020-25.247 56.13-56.254 56.267h-0.013z" />
<glyph unicode="&#xe967;" glyph-name="buy" horiz-adv-x="1175" d="M102.514 808.325c33.147 0 65.726-26.624 71.566-58.747l106.193-585.235c10.581-58.14 66.75-104.183 127.431-104.183h618.382c0.114-0.002 0.248-0.003 0.382-0.003 15.27 0 27.677 12.262 27.91 27.477v0.022c0 15.17-12.667 27.496-28.293 27.496h-618.306c-33.223 0-65.991 26.852-71.756 58.785l-106.193 585.159c-10.657 58.482-66.788 104.296-127.317 104.296h-73.576c-0.114 0.002-0.248 0.003-0.382 0.003-15.27 0-27.677-12.262-27.91-27.477v-0.022c0-15.17 12.667-27.534 28.293-27.534h73.576zM555.084-66.399c0 51.655-43.046 93.525-96.18 93.525-53.096 0-96.142-41.87-96.142-93.525s43.046-93.525 96.142-93.525c53.134 0 96.18 41.87 96.18 93.525zM419.309-66.399c0 21.276 17.749 38.533 39.595 38.533 21.883 0 39.633-17.256 39.633-38.533 0-21.239-17.749-38.495-39.633-38.495-21.845 0-39.595 17.218-39.595 38.495zM1007.692-66.399c0 51.655-43.046 93.525-96.18 93.525-53.096 0-96.18-41.87-96.18-93.525s43.084-93.525 96.18-93.525c53.096 0 96.18 41.87 96.18 93.525zM871.917-66.399c0 13.767 7.585 26.472 19.797 33.375 5.701 3.244 12.526 5.157 19.797 5.157s14.096-1.912 19.998-5.262l-0.201 0.105c12.288-6.903 19.835-19.608 19.835-33.375 0-21.239-17.749-38.495-39.633-38.495-21.845 0-39.595 17.218-39.595 38.495zM1075.655 676.305c29.127 0 47.028-20.783 41.87-48.545l-60.264-322.143c-5.954-31.782-38.76-58.406-72.135-58.406h-673.564c-0.114 0.002-0.248 0.003-0.382 0.003-15.284 0-27.699-12.284-27.911-27.517v-0.020c0-15.17 12.667-27.496 28.293-27.496h673.527c60.757 0 116.926 45.663 127.81 103.576l60.188 322.143c11.529 61.554-33.071 113.399-97.47 113.399h-852.082c-0.114 0.002-0.248 0.003-0.382 0.003-15.27 0-27.677-12.262-27.91-27.477v-0.022c0-15.17 12.667-27.496 28.293-27.496h852.082z" />
<glyph unicode="&#xe968;" glyph-name="vip-(1)" d="M402.122 421.668l-80.49-278.489h-32.192l-80.49 278.489h38.636l56.34-210.882h3.22l56.34 210.882h38.636zM530.9 146.399h-37.023v275.269h37.023v-275.269zM807.778 337.956c0-25.753-7.513-46.142-22.536-61.166-15.116-15.030-36.038-22.541-62.782-22.541h-46.684v-107.85h-37.028v275.269h83.712c26.744 0 47.665-7.512 62.782-22.543 15.023-15.024 22.536-35.412 22.536-61.169zM770.755 337.956c0 20.393-4.831 34.34-14.486 41.857-9.667 7.507-24.154 11.266-43.47 11.266h-37.024v-106.245h37.025c19.315 0 33.8 3.76 43.469 11.273 9.655 7.513 14.486 21.46 14.486 41.85zM956.942 56.010c0-33.91-27.493-61.397-61.398-61.397h-775.614c-33.913 0-61.402 27.486-61.402 61.397v591.98c0 33.91 27.489 61.397 61.402 61.397h775.614c33.905 0 61.398-27.486 61.398-61.397v-591.98zM907.708 522.303h-804.040v-447.933c0-17.689 14.34-32.037 32.036-32.037h739.972c17.69 0 32.033 14.348 32.033 32.037v447.933h-0.001zM907.708 575.194v51.367c0 17.69-14.343 32.030-32.033 32.030h-739.97c-17.697 0-32.036-14.34-32.036-32.030v-51.367h804.039z" />
<glyph unicode="&#xe969;" glyph-name="gouwu" d="M572.72 564.491q-24.274 29.62-58.589 29.572t-58.565-29.572q-24.274-29.62-24.274-71.28h165.678c-0.096 27.838-8.091 51.63-24.274 71.28zM578.018 454.622c-2.785-1.687-5.056-3.958-6.694-6.656l-0.049-0.087c-1.549-2.497-2.477-5.52-2.504-8.758v-0.008c-0.002-0.106-0.004-0.231-0.004-0.357 0-5.861 2.866-11.052 7.273-14.249l0.051-0.035c3.236 4.325 6.248 9.218 8.806 14.376l0.249 0.554c2.261 4.514 4.542 10.024 6.461 15.702l0.282 0.962c-0.625 0.324-1.36 0.619-2.125 0.844l-0.091 0.023c-0.766 0.185-1.646 0.292-2.55 0.292-0.086 0-0.171-0.001-0.256-0.003h0.013c-3.29-0.027-6.349-0.993-8.93-2.641l0.068 0.041zM443.092 439.944c2.752-5.703 5.767-10.599 9.214-15.15l-0.16 0.22c0.816 0.827 1.547 1.741 2.176 2.727l0.040 0.067c0.696 0.972 1.339 2.079 1.875 3.245l0.052 0.126c0.512 1.003 1.002 2.199 1.397 3.437l0.048 0.175c0.367 1.216 0.579 2.614 0.579 4.061 0 0.062 0 0.124-0.001 0.186v-0.009c0 8.669-4.335 14.256-13.004 16.953-1.83 0.385-3.612 0.771-5.105 1.204-1.418-0.032-2.773-0.241-4.064-0.606l0.114 0.028c2.365-6.793 4.675-12.298 7.266-17.64l-0.427 0.976zM512.927 829.769c-263.447 0-477.769-214.322-477.769-477.769s214.298-477.733 477.769-477.733 477.769 214.322 477.769 477.769-214.346 477.733-477.769 477.733zM313.512 95.97l36.603 397.242h72.147c-0.005 0.411-0.008 0.896-0.008 1.381 0 19.458 4.481 37.87 12.468 54.259l-0.323-0.735c8.091 16.76 18.976 29.861 32.654 39.493 12.497 8.976 28.104 14.353 44.967 14.353 0.141 0 0.283 0 0.424-0.001h-0.022c0.066 0 0.144 0 0.222 0 8.483 0 16.657-1.321 24.329-3.768l-0.566 0.156c8.264-2.628 15.453-6.264 21.915-10.855l-0.242 0.163c6.996-4.925 13.021-10.583 18.17-16.976l0.132-0.169c5.209-6.398 9.888-13.606 13.754-21.294l0.31-0.68c3.755-7.441 6.872-16.091 8.91-25.15l0.144-0.762c1.96-8.733 3.083-18.763 3.083-29.054 0-0.080 0-0.16 0-0.241v0.012h72.147l36.603-397.242h-397.82zM596.416 454.393c-2.091-6.735-4.379-12.413-7.061-17.862l0.319 0.716c-2.749-5.703-5.765-10.599-9.214-15.149l0.159 0.219c1.204-0.385 2.119-0.771 3.082-1.204 0.88-0.366 1.903-0.579 2.975-0.579 0.038 0 0.076 0 0.113 0.001h-0.006c0.152-0.005 0.332-0.008 0.512-0.008 4.921 0 9.357 2.073 12.484 5.393l0.008 0.009c3.164 3.321 5.111 7.827 5.111 12.788 0 0.161-0.002 0.321-0.006 0.48v-0.024c0 0.024 0 0.053 0 0.082 0 6.362-3.336 11.945-8.354 15.094l-0.074 0.043zM440.274 420.583c1.665 0.034 3.22 0.476 4.578 1.23l-0.050-0.026c-1.487 1.493-2.794 3.168-3.884 4.987l-0.065 0.118-3.371 6.743-3.371 5.683c-1.204 2.215-2.119 4.527-3.082 6.743-0.806 1.764-1.656 3.999-2.381 6.29l-0.124 0.453c-3.83-3.267-6.247-8.092-6.261-13.483v-0.002c-0.004-0.133-0.006-0.289-0.006-0.446 0-5.016 2.067-9.55 5.396-12.795l0.004-0.004c3.027-3.378 7.404-5.494 12.275-5.494 0.121 0 0.241 0.001 0.361 0.004h-0.018zM542.282 292.074l-27.693 59.143-27.501-59.143-64.826-8.428 47.319-44.55-12.426-64.248 57.506 31.498 57.506-31.498-12.45 64.248 47.392 44.55z" />
<glyph unicode="&#xe96a;" glyph-name="dizhiguanli" d="M908.397 113.463c0-78.397-194.519-119.453-386.649-119.453s-386.58 41.028-386.58 119.453c0 69.55 149.818 98.55 214.248 107.793 0.483 0.047 1.044 0.074 1.611 0.074 9.69 0 17.545-7.855 17.545-17.545 0-8.506-6.054-15.599-14.088-17.204l-0.112-0.019c-134.158-19.224-184.17-55.050-184.17-73.073 0-34.461 136.957-84.419 351.587-84.419s351.614 49.958 351.614 84.419c0 18.173-50.517 54.19-185.958 73.373-8.561 1.247-15.062 8.538-15.062 17.347 0 9.676 7.844 17.52 17.52 17.52 0.867 0 1.719-0.063 2.552-0.185l-0.095 0.011c64.976-9.216 216.091-38.147 216.091-108.093zM521.762 752.957c-127.126 0-230.564-103.424-230.564-230.564 0-194.164 209.688-392.274 218.604-400.63l12.111-11.319 11.96 11.496c8.943 8.506 218.453 211.408 218.453 400.452-0.027 127.14-103.41 230.564-230.564 230.564zM521.762 420.512c-60.324 0-109.227 48.902-109.227 109.227s48.902 109.227 109.227 109.227c60.324 0 109.227-48.902 109.227-109.227v0c-0.039-60.311-48.916-109.194-109.222-109.24h-0.004z" />
</font>
</defs>
</svg>
